<?xml version="1.0" encoding="utf-8"?>
<svg width="16px" height="19px" viewBox="0 0 16 19" version="1.1" xmlns:xlink="http://www.w3.org/1999/xlink" xmlns="http://www.w3.org/2000/svg">
  <desc>Created with Lunacy</desc>
  <g id="Group-3" transform="translate(0.8000488 0.8000488)">
    <path d="M1.599 0L12.401 0Q12.4796 0 12.5577 0.00769962Q12.6359 0.0153992 12.7129 0.0307243Q12.79 0.0460494 12.8652 0.0688524Q12.9403 0.0916554 13.0129 0.121717Q13.0855 0.151778 13.1548 0.188808Q13.224 0.225838 13.2894 0.26948Q13.3547 0.313122 13.4154 0.362956Q13.4761 0.41279 13.5317 0.468336Q13.5872 0.523882 13.637 0.584605Q13.6869 0.645328 13.7305 0.710643Q13.7742 0.775958 13.8112 0.845237Q13.8482 0.914515 13.8783 0.987089Q13.9083 1.05966 13.9311 1.13483Q13.9539 1.21001 13.9693 1.28705Q13.9846 1.3641 13.9923 1.44227Q14 1.52045 14 1.599L14 10.5439Q14 10.6224 13.9923 10.7006Q13.9846 10.7788 13.9693 10.8558Q13.9539 10.9328 13.9311 11.008Q13.9083 11.0832 13.8783 11.1558Q13.8482 11.2283 13.8112 11.2976Q13.7742 11.3669 13.7305 11.4322Q13.6869 11.4975 13.637 11.5583Q13.5872 11.619 13.5317 11.6745Q13.4761 11.7301 13.4154 11.7799Q13.3547 11.8297 13.2894 11.8734Q13.224 11.917 13.1548 11.954Q13.0855 11.9911 13.0129 12.0211Q12.9403 12.0512 12.8652 12.074Q12.79 12.0968 12.7129 12.1121Q12.6359 12.1275 12.5577 12.1352Q12.4796 12.1429 12.401 12.1429L1.599 12.1429Q1.52045 12.1429 1.44227 12.1352Q1.3641 12.1275 1.28705 12.1121Q1.21001 12.0968 1.13483 12.074Q1.05966 12.0512 0.987089 12.0211Q0.914515 11.9911 0.845237 11.954Q0.775958 11.917 0.710643 11.8734Q0.645328 11.8297 0.584605 11.7799Q0.523882 11.7301 0.468336 11.6745Q0.41279 11.619 0.362956 11.5583Q0.313122 11.4975 0.26948 11.4322Q0.225838 11.3669 0.188808 11.2976Q0.151778 11.2283 0.121717 11.1558Q0.0916554 11.0832 0.0688524 11.008Q0.0460494 10.9329 0.0307243 10.8558Q0.0153992 10.7788 0.00769962 10.7006Q0 10.6224 0 10.5439L0 1.599Q0 1.52045 0.00769962 1.44227Q0.0153992 1.3641 0.0307243 1.28705Q0.0460494 1.21001 0.0688524 1.13483Q0.0916554 1.05966 0.121717 0.987089Q0.151778 0.914515 0.188808 0.845237Q0.225838 0.775958 0.26948 0.710643Q0.313122 0.645328 0.362956 0.584605Q0.41279 0.523882 0.468336 0.468336Q0.523882 0.41279 0.584605 0.362956Q0.645328 0.313122 0.710643 0.26948Q0.775958 0.225838 0.845237 0.188808Q0.914515 0.151778 0.987089 0.121717Q1.05966 0.0916554 1.13483 0.0688524Q1.21001 0.0460494 1.28705 0.0307243Q1.3641 0.0153992 1.44227 0.00769962Q1.52045 0 1.599 0Z" transform="translate(0 4.857143)" id="Rectangle" fill="none" stroke="#FFFFFF" stroke-width="1.6" stroke-linecap="round" stroke-linejoin="round" />
    <path d="M0 5.66667L0 3.14815C1.10529e-15 1.40947 1.39289 2.79612e-16 3.11111 0C4.82933 -5.59223e-16 6.22222 1.40947 6.22222 3.14815L6.22222 5.66667" transform="translate(3.888889 -4.884981E-15)" id="Path" fill="none" stroke="#FFFFFF" stroke-width="1.6" stroke-linecap="round" stroke-linejoin="round" />
  </g>
</svg>