<?xml version="1.0" encoding="utf-8"?>
<svg width="52px" height="36px" viewBox="0 0 52 36" version="1.1" xmlns:xlink="http://www.w3.org/1999/xlink" xmlns="http://www.w3.org/2000/svg">
  <desc>Created with Lunacy</desc>
  <defs>
    <path d="M0 19.9619L38.9956 19.9619L38.9956 0L0 0L0 19.9619Z" transform="translate(0 0.0001102362)" id="path_1" />
    <clipPath id="mask_1">
      <use xlink:href="#path_1" />
    </clipPath>
  </defs>
  <g id="Group-7" transform="translate(0.75 0.75)">
    <g id="Logo" transform="translate(5 10)">
      <path d="M0 0L0 0.509172L1.10954 0.509172L1.10954 4.92308L1.62628 4.92308L1.62628 0.509172L2.74219 0.509172L2.74219 0L0 0Z" transform="translate(0 14.73123)" id="Fill-1" fill="#252E43" stroke="none" />
      <path d="M1.84286 3.8005L0.576159 0.242109L0 0.242109L1.82174 5.23077L3.31565 1.43763L4.71755 5.23077L6.70313 0.242109L6.12634 0.242109L4.73179 3.8005L3.33005 0L1.84286 3.8005Z" transform="translate(3.65625 14.73123)" id="Fill-2" fill="#252E43" stroke="none" />
      <path d="M2.44964 4.94126C3.82451 4.94126 4.94251 3.83843 4.94251 2.47087C4.94251 1.11717 3.82451 0 2.4783 0C1.13914 0 0 1.12425 0 2.44189C0 3.08661 0.213325 3.65228 0.612096 4.10346C1.08229 4.62614 1.77301 4.94126 2.44964 4.94126ZM1.13914 3.89575C0.740373 3.51622 0.534096 3.02913 0.534096 2.44189C0.534096 1.3822 1.40995 0.501417 2.47125 0.501417C3.54649 0.501417 4.40825 1.3822 4.40825 2.47087C4.40825 3.56646 3.5396 4.44 2.45716 4.44C1.98681 4.44 1.50283 4.23921 1.13914 3.89575Z" transform="translate(10.89748 14.86334)" id="Fill-3" fill="#252E43" fill-rule="evenodd" stroke="none" />
      <path d="M1.68123 4.77654L1.14698 4.77654L1.14698 0.494173L0 0.494173L0 0L2.83478 0L2.83478 0.494173L1.68123 0.494173L1.68123 4.77654Z" transform="translate(16.38158 14.94211)" id="Fill-5" fill="#252E43" stroke="none" />
      <path d="M2.95601 1.94787L2.95601 0L3.49011 0L3.49011 4.77654L2.95601 4.77654L2.95601 2.4422L0.534096 2.4422L0.534096 4.77654L0 4.77654L0 0L0.534096 0L0.534096 1.94787L2.95601 1.94787Z" transform="translate(20.29183 14.94211)" id="Fill-7" fill="#252E43" stroke="none" />
      <path d="M0 19.9619L38.9956 19.9619L38.9956 0L0 0L0 19.9619Z" transform="translate(0 0.0001102362)" id="Clip-10" fill="none" stroke="none" />
      <g clip-path="url(#mask_1)">
        <path d="M0 4.77654L0.534567 4.77654L0.534567 0L0 0L0 4.77654Z" transform="translate(25.37005 14.94216)" id="Fill-9" fill="#252E43" stroke="none" />
        <path d="M2.10114 4.77654L2.74958 4.77654L1.23939 2.64268C1.96566 2.57811 2.43601 2.06268 2.43601 1.33921C2.43601 0.888189 2.23647 0.479843 1.90896 0.257795C1.63816 0.0716535 1.31065 0 0.769036 0L0 0L0 4.77654L0.534253 4.77654L0.534253 2.68551L0.669735 2.68551L2.10114 4.77654ZM1.91617 1.33921C1.91617 1.8978 1.5387 2.21291 0.86912 2.21291L0.534253 2.21291L0.534253 0.494173L0.847663 0.494173C1.18237 0.494173 1.39633 0.544252 1.56689 0.651811C1.78758 0.787874 1.91617 1.04551 1.91617 1.33921Z" transform="translate(27.49264 14.94206)" id="Fill-11" fill="#252E43" fill-rule="evenodd" stroke="none" />
        <path d="M0.97594 0L0 0L0 4.77654L0.968422 4.77654C1.73777 4.77654 2.23631 4.6189 2.70635 4.22504C3.24765 3.77386 3.53992 3.13669 3.53992 2.38472C3.53992 1.64709 3.24765 0.995433 2.72092 0.551654C2.26513 0.164882 1.74482 0 0.97594 0ZM2.35739 3.84551C2.00137 4.14646 1.58114 4.28236 0.997084 4.28236L0.534253 4.28236L0.534253 0.494016L0.997084 0.494016C1.58114 0.494016 2.00858 0.630394 2.36475 0.931024C2.77057 1.27465 3.00535 1.80488 3.00535 2.39197C3.00535 2.97181 2.77057 3.4948 2.35739 3.84551Z" transform="translate(31.42441 14.94216)" id="Fill-12" fill="#252E43" fill-rule="evenodd" stroke="none" />
        <path d="M2.37884 1.01685C2.13654 0.630394 1.93011 0.501417 1.55984 0.501417C1.118 0.501417 0.776398 0.816535 0.776398 1.2389C0.776398 1.44661 0.875699 1.61827 1.0754 1.75465C1.24643 1.86898 1.24643 1.86898 1.8944 2.15543C2.6567 2.49228 2.9698 2.8715 2.9698 3.47339C2.9698 4.29669 2.30773 4.94126 1.46007 4.94126C0.712181 4.94126 0.177928 4.48992 0 3.70929L0.512639 3.5663C0.569651 3.80976 0.61241 3.92425 0.705133 4.05307C0.875699 4.29669 1.16828 4.43984 1.48137 4.43984C2.00842 4.43984 2.4357 4.02457 2.4357 3.50189C2.4357 3.20819 2.30773 2.98614 2.04398 2.82157C1.86605 2.70693 1.86605 2.70693 1.20367 2.40614C0.519843 2.09811 0.242145 1.75465 0.242145 1.2315C0.242145 0.530079 0.811952 0 1.57394 0C2.10804 0 2.51433 0.250709 2.79923 0.744882L2.37884 1.01685Z" transform="translate(36.02568 14.86335)" id="Fill-13" fill="#252E43" stroke="none" />
        <path d="M4.01277 7.53039C6.22857 7.53039 8.02507 5.72346 8.02507 3.49559C8.02507 2.00299 7.21766 0.698425 6.019 0L5.41912 1.04409C6.25958 1.53354 6.82704 2.44803 6.82704 3.49496C6.82704 5.05874 5.56619 6.32457 4.01167 6.32457C2.45778 6.32457 1.19694 5.05779 1.19694 3.49496L0 3.49386C0 5.72252 1.79572 7.52866 4.01277 7.53039" transform="translate(15.31359 1.485276)" id="Fill-14" fill="#252E43" stroke="none" />
        <path d="M5.71953 10.7312C8.87743 10.7312 11.4375 8.15827 11.4375 4.98142C11.4375 2.85213 10.2882 0.994016 8.57843 0L7.97949 1.04268C9.3304 1.82913 10.2396 3.29874 10.2396 4.98079C10.2396 7.49165 8.21616 9.5274 5.71953 9.52551C3.2229 9.52551 1.19819 7.49008 1.19819 4.97921L0 4.97921C0 8.15512 2.56006 10.7312 5.71953 10.7312" transform="translate(13.60683 -1.421085E-14)" id="Fill-15" fill="#252E43" stroke="none" />
        <path d="M2.30539 4.32677C3.5786 4.32677 4.61171 3.29008 4.61171 2.00835C4.61171 1.15039 4.1481 0.400945 3.458 0L2.85969 1.04425C3.19048 1.23669 3.41289 1.59717 3.41289 2.00835C3.41289 2.62346 2.9167 3.12157 2.30539 3.12157C1.6947 3.12157 1.19804 2.62315 1.19804 2.00835L0 2.00835C0 3.28835 1.03264 4.32677 2.30539 4.32677" transform="translate(17.01991 2.971843)" id="Fill-16" fill="#252E43" stroke="none" />
      </g>
    </g>
    <path d="M47.619 34L2.38095 34C1.06429 34 0 33.3377 0 32.5217L0 1.47826C0 0.662261 1.06429 0 2.38095 0L47.619 0C48.9357 0 50 0.662261 50 1.47826L50 32.5217C50 33.3377 48.9357 34 47.619 34Z" id="Stroke-1" fill="none" stroke="#252E43" stroke-width="1.5" stroke-linecap="round" stroke-linejoin="round" />
    <path d="M0 0.5L50 0.5" transform="translate(0 6)" id="Stroke-3" fill="none" stroke="#252E43" stroke-width="1.5" stroke-linecap="round" stroke-linejoin="round" />
    <path d="M0 0.5L2 0.5" transform="translate(3 3)" id="Stroke-5" fill="none" stroke="#252E43" stroke-width="1.5" stroke-linecap="round" stroke-linejoin="round" />
    <path d="M0 0.5L2 0.5" transform="translate(7 3)" id="Stroke-5" fill="none" stroke="#252E43" stroke-width="1.5" stroke-linecap="round" stroke-linejoin="round" />
  </g>
</svg>