<?xml version="1.0" encoding="UTF-8"?>
<svg width="53px" height="51px" viewBox="0 0 53 51" version="1.1" xmlns="http://www.w3.org/2000/svg" xmlns:xlink="http://www.w3.org/1999/xlink">
    <!-- Generator: Sketch 60.1 (88133) - https://sketch.com -->
    <title>Group 23</title>
    <desc>Created with Sketch.</desc>
    <g id="Eco" stroke="none" stroke-width="1" fill="none" fill-rule="evenodd">
        <g id="09-01-Eco-mobile" transform="translate(-134.000000, -538.000000)" fill="#252E43">
            <g id="Group-23" transform="translate(134.000011, 538.000000)">
                <path d="M52.8096133,31.445712 L45.6756733,29.045952 L43.2688933,36.193392 L45.5482333,36.960732 L46.7302933,33.457752 L47.8875133,35.460612 C49.3341733,37.966752 49.6003933,40.267692 48.6321733,41.942232 C47.6677333,43.616772 45.5422933,44.536392 42.6468133,44.536392 L18.8160733,44.536392 L18.8160733,46.942632 L42.6468133,46.942632 C46.4354533,46.942632 49.3060933,45.593712 50.7171133,43.144272 C52.1319133,40.695372 51.8662333,37.537452 49.9719133,34.256952 L49.0911733,32.735232 L52.0395733,33.727752 L52.8096133,31.445712 Z" id="Fill-1"></path>
                <path d="M8.96728325,46.942794 L10.7330833,46.942794 L8.31010325,49.365234 L10.0105633,51.070014 L15.3322633,45.746154 L9.99976325,40.412574 L8.29876325,42.114654 L10.7212033,44.536014 L8.96728325,44.536014 C6.07504325,44.536014 3.94690325,43.616394 2.98192325,41.942394 C2.01370325,40.267854 2.27938325,37.966914 3.72766325,35.458614 L16.3442233,13.604274 L14.2625233,12.400614 L1.64164325,34.255494 C-0.253756745,37.537614 -0.515656745,40.695534 0.896443255,43.143894 C2.31232325,45.593334 5.17756325,46.942794 8.96728325,46.942794" id="Fill-6"></path>
                <path d="M18.3329353,7.72578 L18.2519353,7.7436 L18.2368153,7.66908 L18.3329353,7.72578 Z M23.7971953,8.93376 L23.2561153,6.58746 L19.9561753,7.34994 L20.5652953,6.29478 C22.0124953,3.78756 23.8754953,2.40624 25.8054553,2.40624 C27.7386553,2.40624 29.5973353,3.78756 31.0450753,6.29478 L43.1291953,27.2214 L45.2125153,26.01828 L33.1310953,5.0895 C31.2367753,1.80846 28.6318153,-4.79616347e-14 25.8054553,-4.79616347e-14 C22.9785553,-4.79616347e-14 20.3773753,1.80846 18.4803553,5.09166 L17.8804153,6.13224 L17.0990353,2.75616 L14.7543553,3.29832 L16.4504953,10.62936 L23.7971953,8.93376 Z" id="Fill-3"></path>
            </g>
        </g>
    </g>
</svg>