<?xml version="1.0" encoding="UTF-8"?>
<svg width="37px" height="56px" viewBox="0 0 37 56" version="1.1" xmlns="http://www.w3.org/2000/svg" xmlns:xlink="http://www.w3.org/1999/xlink">
    <!-- Generator: Sketch 60.1 (88133) - https://sketch.com -->
    <title>Group 37</title>
    <desc>Created with Sketch.</desc>
    <g id="Eco" stroke="none" stroke-width="1" fill="none" fill-rule="evenodd">
        <g id="09-01-Eco-mobile" transform="translate(-142.000000, -841.000000)" fill="#252E43">
            <g id="Group-37" transform="translate(142.000000, 841.000000)">
                <g id="Group-35">
                    <path d="M18.1085628,53.6725 L17.8440628,53.6705 C8.95906282,53.5365 1.82706282,46.1855 1.95906282,37.2885 C1.96806282,36.5495 2.03356282,35.8045 2.14256282,35.039 C2.26506282,34.192 2.44606282,33.3255 2.69156282,32.4215 C4.27456282,26.647 8.19756282,21.251 11.9925628,16.03 C14.5275628,12.544 16.9680628,9.1865 18.6470628,5.822 C18.7560628,6.0405 18.8730628,6.263 18.9915628,6.4865 C20.4410628,9.1865 22.3500628,11.812 24.3760628,14.5935 L24.3935628,14.6175 C25.9170628,16.7135 27.4920628,18.88 28.9180628,21.152 C32.0500628,26.148 33.7070628,30.538 34.1310628,35.039 C34.2145628,35.945 34.2535628,36.855 34.2385628,37.7755 C34.1105628,46.541 26.8705628,53.6725 18.1085628,53.6725 M36.0950628,35.039 C35.6770628,30.163 33.9240628,25.4495 30.5735628,20.114 C29.1085628,17.7735 27.5080628,15.573 25.9590628,13.442 C23.9730628,10.7115 22.0990628,8.1325 20.7165628,5.5625 C19.6380628,3.5475 18.9660628,1.735 18.6680628,-1.24344979e-13 C17.7185628,4.8275 14.1555628,9.7245 10.4160628,14.8705 C6.51506282,20.234 2.48156282,25.782 0.804062821,31.904 C0.508062821,32.985 0.304562821,34.0225 0.172062821,35.039 C0.0755628213,35.7875 0.0110628213,36.5265 0.00206282128,37.2585 C-0.147437179,47.2355 7.84806282,55.4755 17.8275628,55.629 C17.9205628,55.629 18.0150628,55.6305 18.1085628,55.6305 C27.9355628,55.6305 36.0495628,47.6355 36.1965628,37.8045 C36.2120628,36.8745 36.1740628,35.9535 36.0950628,35.039" id="Fill-1"></path>
                    <path d="M31.7462628,35.2848 C31.2902628,28.5238 28.0177628,24.3693 28.0177628,24.3693 L9.07076282,24.3693 C4.85426282,30.6638 4.53526282,35.2848 4.53526282,35.2848 C4.41576282,36.0408 4.34576282,36.7743 4.33526282,37.4953 C4.22376282,45.0858 10.2992628,51.3528 17.8662628,51.4663 L18.1157628,51.4683 C25.5872628,51.4663 31.7522628,45.3848 31.8627628,37.9153 C31.8752628,37.0303 31.8367628,36.1563 31.7462628,35.2848" id="Fill-4"></path>
                </g>
            </g>
        </g>
    </g>
</svg>