<?xml version="1.0" encoding="utf-8"?>
<svg width="43px" height="42px" viewBox="0 0 43 42" version="1.1" xmlns:xlink="http://www.w3.org/1999/xlink" xmlns="http://www.w3.org/2000/svg">
  <desc>Created with Lunacy</desc>
  <g id="Group-16">
    <path d="M3.00023 0L2.29707 1.92545L0 1.92423L1.86371 3.09889L1.16563 5L3.00023 3.82413L4.8353 5L4.13721 3.09889L6 1.92423L3.70201 1.92423L3.00023 0Z" transform="translate(18 0.4)" id="Fill-1" fill="#252E43" stroke="none" />
    <path d="M1.16645 5L3.00116 3.82439L4.83448 5L4.13803 3.09997L6 1.92436L3.70176 1.92436L2.99977 0L2.29639 1.92679L0 1.92436L1.86151 3.09997L1.16645 5Z" transform="translate(9 2.4)" id="Fill-2" fill="#252E43" stroke="none" />
    <path d="M2.99908 0L2.29656 1.92729L0 1.92648L1.86212 3.10028L1.16377 5L2.99908 3.8262L4.83577 5L4.13742 3.10028L6 1.92648L3.70251 1.92648L2.99908 0Z" transform="translate(2 9.4)" id="Fill-3" fill="#252E43" stroke="none" />
    <path d="M2.29771 1.92938L0 1.92451L1.86293 3.10144L1.16479 5L2.99954 3.82591L4.83243 5L4.13753 3.10144L6 1.92451L3.70276 1.92451L2.99954 0L2.29771 1.92938Z" transform="translate(0 18.4)" id="Fill-4" fill="#252E43" stroke="none" />
    <path d="M3.70269 1.92461L2.99931 0L2.29685 1.92704L0 1.92461L1.86244 3.09972L1.16414 5L2.99931 3.82327L4.8354 5L4.1371 3.09972L6 1.92461L3.70269 1.92461Z" transform="translate(2 27.4)" id="Fill-5" fill="#252E43" stroke="none" />
    <path d="M3.70333 1.92498L3.00046 0L2.29806 1.9262L0 1.92498L1.86275 3.09935L1.16682 5L3.00185 3.82441L4.83688 5L4.13817 3.09935L6 1.92498L3.70333 1.92498Z" transform="translate(9 34.4)" id="Fill-6" fill="#252E43" stroke="none" />
    <path d="M2.29771 1.92738L0 1.92535L1.86201 3.09937L1.16479 5L3.00185 3.82436L4.83336 5L4.13661 3.09937L6 1.92535L3.70183 1.92535L2.99815 0L2.29771 1.92738Z" transform="translate(18 36.4)" id="Fill-7" fill="#252E43" stroke="none" />
    <path d="M3.70016 1.92498L2.99885 0L2.29429 1.9262L0 1.92498L1.86094 3.09935L1.16424 5L2.99885 3.82441L4.83345 5L4.13444 3.09935L6 1.92498L3.70016 1.92498Z" transform="translate(28 34.4)" id="Fill-8" fill="#252E43" stroke="none" />
    <path d="M3.70571 1.92461L3.00023 0L2.29476 1.92704L0 1.92461L1.86602 3.09972L1.16424 5L3.00023 3.82327L4.83576 5L4.1349 3.09972L6 1.92461L3.70571 1.92461Z" transform="translate(34 27.4)" id="Fill-9" fill="#252E43" stroke="none" />
    <path d="M2.29764 1.92729L0 1.92566L1.86296 3.09987L1.16637 5L2.99977 3.82255L4.8327 5L4.13704 3.09987L6 1.92607L6 1.92566L3.70283 1.92566L2.99977 0L2.29764 1.92729Z" transform="translate(37 18.4)" id="Fill-10" fill="#252E43" stroke="none" />
    <path d="M1.16424 5L3.00023 3.82532L4.83576 5L4.1349 3.09951L6 1.92604L3.70571 1.92604L3.00023 0L2.29476 1.92847L0 1.92604L1.86602 3.09951L1.16424 5Z" transform="translate(34 9.4)" id="Fill-11" fill="#252E43" stroke="none" />
    <path d="M2.99977 0L2.29636 1.9262L0 1.92214L1.86175 3.10097L1.16619 5L3.00208 3.82279L4.83381 5L4.13548 3.10097L6 1.92214L3.70087 1.92214L2.99977 0Z" transform="translate(28 2.4)" id="Fill-12" fill="#252E43" stroke="none" />
    <path d="M1.82583 1.54289L1.82583 2.70785L3.88449 2.70785L3.88449 4.2503L1.82583 4.2503L1.82583 5.45711L4 5.45711L4 7L0 7L0 0L4 0L4 1.54289L1.82583 1.54289Z" transform="translate(16 18.4)" id="Fill-13" fill="#252E43" stroke="none" />
    <path d="M1.78638 3.69447C1.78638 4.47234 1.80697 4.62601 1.98262 4.91207C2.17887 5.2398 2.55078 5.43427 2.98401 5.43427C3.43871 5.43427 3.84128 5.2194 4.02745 4.88168C4.18252 4.61559 4.21319 4.4107 4.21319 3.69447L4.21319 0L6 0L6 3.94016C6 4.94289 5.82434 5.48505 5.32847 6.03764C4.76075 6.67227 3.95517 7 2.95335 7C1.90027 7 0.970724 6.61106 0.495875 5.97644C0.134482 5.49547 0 4.94289 0 3.94016L0 0L1.78638 0L1.78638 3.69447Z" transform="translate(21 18.4)" id="Fill-14" fill="#252E43" stroke="none" />
  </g>
</svg>