<?xml version="1.0" encoding="UTF-8"?>
<svg width="303px" height="326px" viewBox="0 0 303 326" version="1.1" xmlns="http://www.w3.org/2000/svg" xmlns:xlink="http://www.w3.org/1999/xlink">
    <!-- Generator: Sketch 60.1 (88133) - https://sketch.com -->
    <title>Group 32</title>
    <desc>Created with Sketch.</desc>
    <defs>
        <polygon id="path-1" points="0.000224 -5.6e-05 14.20832 -5.6e-05 14.20832 13.152664 0.000224 13.152664"></polygon>
    </defs>
    <g id="Eco" stroke="none" stroke-width="1" fill="none" fill-rule="evenodd">
        <g id="09-01-Eco-mobile" transform="translate(-10.000000, -16905.000000)">
            <g id="Group-32" transform="translate(10.000000, 16905.000000)">
                <path d="M152.32,274.4 C220.98004,274.4 276.64,218.74004 276.64,150.08 C276.64,112.852788 260.277269,79.4472972 234.351494,56.663215 C225.962428,49.290739 216.572073,43.030368 206.410803,38.1124765 C190.057227,30.1976082 171.706843,25.76 152.32,25.76 C83.6599599,25.76 28,81.4199599 28,150.08 C28,218.74004 83.6599599,274.4 152.32,274.4 Z" id="Oval" stroke="#C1C4D0" stroke-width="0.56"></path>
                <circle id="Oval" fill="#FFFFFF" cx="153.16" cy="26.6" r="26.6"></circle>
                <circle id="Oval" fill="#FFFFFF" cx="26.6" cy="148.68" r="26.6"></circle>
                <circle id="Oval" fill="#FFFFFF" cx="275.8" cy="148.68" r="26.6"></circle>
                <circle id="Oval" fill="#FFFFFF" cx="153.44" cy="268.52" r="57.12"></circle>
                <circle id="Oval" stroke="#252E43" stroke-width="1.68" fill="#FFFFFF" cx="153.44" cy="26.88" r="19.04"></circle>
                <path d="M133.4816,65.12 L133.4816,61.85408 L135.97136,57.51968 L134.9936,57.51968 L133.05824,60.90656 L131.12288,57.51968 L130.14512,57.51968 L132.63488,61.85408 L132.63488,65.12 L133.4816,65.12 Z M138.8744,65.25104 C140.24528,65.25104 141.36416,64.1624 141.36416,62.76128 C141.36416,61.37024 140.27552,60.25136 138.8744,60.25136 C137.47328,60.25136 136.38464,61.37024 136.38464,62.76128 C136.38464,64.1624 137.50352,65.25104 138.8744,65.25104 Z M138.8744,64.50512 C137.8664,64.50512 137.19104,63.71888 137.19104,62.7512 C137.19104,61.7936 137.8664,60.99728 138.8744,60.99728 C139.8824,60.99728 140.55776,61.7936 140.55776,62.7512 C140.55776,63.71888 139.8824,64.50512 138.8744,64.50512 Z M144.28736,65.25104 C145.68848,65.25104 146.16224,64.37408 146.16224,63.11408 L146.16224,60.3824 L145.35584,60.3824 L145.35584,63.02336 C145.35584,63.81968 145.26512,64.50512 144.28736,64.50512 C143.3096,64.50512 143.21888,63.81968 143.21888,63.02336 L143.21888,60.3824 L142.41248,60.3824 L142.41248,63.11408 C142.41248,64.37408 142.88624,65.25104 144.28736,65.25104 Z M148.4,65.12 L148.4,62.7512 C148.4,62.13632 148.44032,60.99728 149.32736,60.99728 C149.53904,60.99728 149.64992,61.09808 149.8112,61.20896 L150.19424,60.47312 C149.9624,60.34208 149.74064,60.25136 149.46848,60.25136 C148.94432,60.25136 148.7024,60.52352 148.42016,60.89648 L148.4,60.89648 L148.4,60.3824 L147.5936,60.3824 L147.5936,65.12 L148.4,65.12 Z M156.18176,65.25104 C157.55264,65.25104 158.67152,64.1624 158.67152,62.76128 C158.67152,61.37024 157.58288,60.25136 156.18176,60.25136 C154.78064,60.25136 153.692,61.37024 153.692,62.76128 C153.692,64.1624 154.81088,65.25104 156.18176,65.25104 Z M156.18176,64.50512 C155.17376,64.50512 154.4984,63.71888 154.4984,62.7512 C154.4984,61.7936 155.17376,60.99728 156.18176,60.99728 C157.18976,60.99728 157.86512,61.7936 157.86512,62.7512 C157.86512,63.71888 157.18976,64.50512 156.18176,64.50512 Z M160.5464,65.12 L160.5464,62.7512 C160.5464,62.13632 160.58672,60.99728 161.47376,60.99728 C161.68544,60.99728 161.79632,61.09808 161.9576,61.20896 L162.34064,60.47312 C162.1088,60.34208 161.88704,60.25136 161.61488,60.25136 C161.09072,60.25136 160.8488,60.52352 160.56656,60.89648 L160.5464,60.89648 L160.5464,60.3824 L159.74,60.3824 L159.74,65.12 L160.5464,65.12 Z M165.02192,65.25104 C165.66704,65.25104 166.26176,64.97888 166.65488,64.4648 L166.67504,64.4648 L166.67504,65.12 L167.48144,65.12 L167.48144,56.804 L166.67504,56.804 L166.67504,61.05776 L166.65488,61.05776 C166.26176,60.54368 165.67712,60.25136 165.032,60.25136 C163.61072,60.25136 162.75392,61.41056 162.75392,62.76128 C162.75392,64.07168 163.6208,65.25104 165.02192,65.25104 Z M165.1328,64.50512 C164.1248,64.50512 163.58048,63.62816 163.58048,62.7008 C163.58048,61.81376 164.19536,60.99728 165.12272,60.99728 C166.12064,60.99728 166.71536,61.77344 166.71536,62.71088 C166.71536,63.66848 166.17104,64.50512 165.1328,64.50512 Z M170.86832,65.25104 C171.836,65.25104 172.60208,64.7672 173.05568,63.92048 L172.37024,63.52736 C172.05776,64.09184 171.61424,64.50512 170.9288,64.50512 C170.01152,64.50512 169.37648,63.79952 169.37648,62.92256 L173.096,62.92256 C173.17664,61.51136 172.38032,60.25136 170.84816,60.25136 C169.3664,60.25136 168.54992,61.40048 168.54992,62.81168 C168.54992,64.17248 169.44704,65.25104 170.86832,65.25104 Z M172.24928,62.23712 L169.4168,62.23712 C169.52768,61.55168 170.16272,60.99728 170.85824,60.99728 C171.56384,60.99728 172.1384,61.55168 172.24928,62.23712 Z M174.97088,65.12 L174.97088,62.7512 C174.97088,62.13632 175.0112,60.99728 175.89824,60.99728 C176.10992,60.99728 176.2208,61.09808 176.38208,61.20896 L176.76512,60.47312 C176.53328,60.34208 176.31152,60.25136 176.03936,60.25136 C175.5152,60.25136 175.27328,60.52352 174.99104,60.89648 L174.97088,60.89648 L174.97088,60.3824 L174.16448,60.3824 L174.16448,65.12 L174.97088,65.12 Z" id="Yourorder" fill="#252E43" fill-rule="nonzero"></path>
                <g id="Group-26" transform="translate(128.800000, 116.480000)">
                    <path d="M18.06,56.56 C16.1770925,56.56 15.2223789,55.3 14.4267841,54.292 C13.6311894,53.256 13.100793,52.64 12.04,52.64 C10.979207,52.64 10.4222907,53.256 9.65321586,54.292 C8.88414097,55.3 7.90290749,56.56 6.02,56.56 C4.13709251,56.56 3.18237885,55.3 2.38678414,54.292 C1.59118943,53.256 1.06079295,52.64 0,52.64 L0,50.96 C1.88290749,50.96 2.83762115,52.22 3.63321586,53.228 C4.42881057,54.264 4.95920705,54.88 6.02,54.88 C7.08079295,54.88 7.63770925,54.264 8.40678414,53.228 C9.17585903,52.22 10.1570925,50.96 12.04,50.96 C13.9229075,50.96 14.8776211,52.22 15.6732159,53.228 C16.4688106,54.264 16.999207,54.88 18.06,54.88 C19.120793,54.88 19.6777093,54.264 20.4467841,53.228 C21.215859,52.22 22.1970925,50.96 24.08,50.96 L24.08,52.64 C23.019207,52.64 22.4622907,53.256 21.6932159,54.292 C20.924141,55.3 19.9429075,56.56 18.06,56.56 Z" id="Path" fill="#052233" fill-rule="nonzero"></path>
                    <path d="M42.14,56.56 C40.2570925,56.56 39.3023789,55.3 38.5067841,54.292 C37.7111894,53.256 37.180793,52.64 36.12,52.64 C35.059207,52.64 34.5022907,53.256 33.7332159,54.292 C32.964141,55.3 31.9829075,56.56 30.1,56.56 C28.2170925,56.56 27.2623789,55.3 26.4667841,54.292 C25.6711894,53.256 25.140793,52.64 24.08,52.64 L24.08,50.96 C25.9629075,50.96 26.9176211,52.22 27.7132159,53.228 C28.5088106,54.264 29.039207,54.88 30.1,54.88 C31.160793,54.88 31.7177093,54.264 32.4867841,53.228 C33.255859,52.22 34.2370925,50.96 36.12,50.96 C38.0029075,50.96 38.9576211,52.22 39.7532159,53.228 C40.5488106,54.264 41.079207,54.88 42.14,54.88 C43.200793,54.88 43.7577093,54.264 44.5267841,53.228 C45.295859,52.22 46.2770925,50.96 48.16,50.96 L48.16,52.64 C47.099207,52.64 46.5422907,53.256 45.7732159,54.292 C45.004141,55.3 44.0229075,56.56 42.14,56.56 Z" id="Path" fill="#052233" fill-rule="nonzero"></path>
                    <polygon id="Fill-8" fill="#252E43" points="35.84 18.48 11.76 18.48 23.8009109 0"></polygon>
                    <polygon id="Fill-10" fill="#252E43" points="38.64 36.4 8.96 36.4 23.8004482 13.44"></polygon>
                    <polygon id="Fill-12" fill="#252E43" points="21.84 42.56 26.32 42.56 26.32 8.96 21.84 8.96"></polygon>
                </g>
                <g id="Group-3" transform="translate(146.720000, 21.280000)">
                    <mask id="mask-2" fill="white">
                        <use xlink:href="#path-1"></use>
                    </mask>
                    <g id="Clip-2"></g>
                    <path d="M9.578464,-5.6e-05 C9.410464,1.043784 8.506624,1.842344 7.413504,1.842344 C6.320384,1.842344 5.415984,1.043784 5.248544,-5.6e-05 L0.000224,-5.6e-05 L0.000224,5.289144 L3.132864,5.289144 L3.132864,13.152664 L11.074784,13.152664 L11.074784,5.289144 L14.208544,5.289144 L14.208544,-5.6e-05 L9.578464,-5.6e-05 Z" id="Fill-1" fill="#252E43" mask="url(#mask-2)"></path>
                </g>
                <circle id="Oval" stroke="#252E43" stroke-width="1.68" fill="#FFFFFF" cx="275.52" cy="149.52" r="19.04"></circle>
                <path d="M270.99072,150.08896 L270.99072,149.25568 C270.99072,149.142187 270.996693,149.03168 271.00864,148.92416 L269.84384,148.92416 L269.84384,147.616 L271.20576,147.616 C271.34912,146.946987 271.57312,146.340693 271.87776,145.79712 C272.1824,145.253547 272.55872,144.787627 273.00672,144.39936 C273.45472,144.011093 273.971413,143.70944 274.5568,143.4944 C275.142187,143.27936 275.787307,143.17184 276.49216,143.17184 C277.400107,143.17184 278.173653,143.339093 278.8128,143.6736 C279.451947,144.008107 279.974613,144.438187 280.3808,144.96384 L278.98304,146.0928 C278.684373,145.686613 278.317013,145.370027 277.88096,145.14304 C277.444907,144.916053 276.970027,144.80256 276.45632,144.80256 C275.751467,144.80256 275.10336,145.032533 274.512,145.49248 C273.92064,145.952427 273.49952,146.660267 273.24864,147.616 L277.31648,147.616 L277.31648,148.92416 L273.05152,148.92416 C273.039573,149.019733 273.0336,149.115307 273.0336,149.21088 L273.0336,149.79328 C273.0336,149.894827 273.039573,149.993387 273.05152,150.08896 L277.31648,150.08896 L277.31648,151.39712 L273.26656,151.39712 C273.4816,152.245333 273.854933,152.93824 274.38656,153.47584 C274.918187,154.01344 275.608107,154.28224 276.45632,154.28224 C276.99392,154.28224 277.471787,154.168747 277.88992,153.94176 C278.308053,153.714773 278.6784,153.40416 279.00096,153.00992 L280.3808,154.13888 C279.926827,154.67648 279.383253,155.10656 278.75008,155.42912 C278.116907,155.75168 277.35232,155.91296 276.45632,155.91296 C275.70368,155.91296 275.03168,155.799467 274.44032,155.57248 C273.84896,155.345493 273.332267,155.031893 272.89024,154.63168 C272.448213,154.231467 272.08384,153.756587 271.79712,153.20704 C271.5104,152.657493 271.301333,152.054187 271.16992,151.39712 L269.84384,151.39712 L269.84384,150.08896 L270.99072,150.08896 Z" id="€" fill="#252E43" fill-rule="nonzero"></path>
                <path d="M222.48968,153.04 L222.48968,145.43968 L220.82648,145.43968 L220.38296,146.22592 L221.64296,146.22592 L221.64296,153.04 L222.48968,153.04 Z M232.8116,153.04 L232.8116,152.25376 L229.71704,152.25376 L229.71704,149.27008 L232.72088,149.27008 L232.72088,148.48384 L229.71704,148.48384 L229.71704,146.22592 L232.8116,146.22592 L232.8116,145.43968 L228.87032,145.43968 L228.87032,153.04 L232.8116,153.04 Z M236.06744,153.17104 C237.46856,153.17104 237.94232,152.29408 237.94232,151.03408 L237.94232,148.3024 L237.13592,148.3024 L237.13592,150.94336 C237.13592,151.73968 237.0452,152.42512 236.06744,152.42512 C235.08968,152.42512 234.99896,151.73968 234.99896,150.94336 L234.99896,148.3024 L234.19256,148.3024 L234.19256,151.03408 C234.19256,152.29408 234.66632,153.17104 236.06744,153.17104 Z M240.18008,153.04 L240.18008,150.6712 C240.18008,150.05632 240.2204,148.91728 241.10744,148.91728 C241.31912,148.91728 241.43,149.01808 241.59128,149.12896 L241.97432,148.39312 C241.74248,148.26208 241.52072,148.17136 241.24856,148.17136 C240.7244,148.17136 240.48248,148.44352 240.20024,148.81648 L240.18008,148.81648 L240.18008,148.3024 L239.37368,148.3024 L239.37368,153.04 L240.18008,153.04 Z M244.8572,153.17104 C246.22808,153.17104 247.34696,152.0824 247.34696,150.68128 C247.34696,149.29024 246.25832,148.17136 244.8572,148.17136 C243.45608,148.17136 242.36744,149.29024 242.36744,150.68128 C242.36744,152.0824 243.48632,153.17104 244.8572,153.17104 Z M244.8572,152.42512 C243.8492,152.42512 243.17384,151.63888 243.17384,150.6712 C243.17384,149.7136 243.8492,148.91728 244.8572,148.91728 C245.8652,148.91728 246.54056,149.7136 246.54056,150.6712 C246.54056,151.63888 245.8652,152.42512 244.8572,152.42512 Z" id="1Euro" fill="#252E43" fill-rule="nonzero"></path>
                <circle id="Oval" stroke="#252E43" stroke-width="1.68" fill="#FFFFFF" cx="27.44" cy="149.52" r="19.04"></circle>
                <circle id="Oval" stroke="#252E43" stroke-width="1.68" fill="#FFFFFF" cx="125.44" cy="268.8" r="19.04"></circle>
                <path d="M59.1136,141.93104 C60.172,141.93104 61.2304,141.46736 61.92592,140.66096 C62.62144,139.86464 62.7424,138.99776 62.71216,137.97968 L59.54704,137.97968 L59.54704,138.76592 L61.80496,138.76592 C61.80496,140.17712 60.41392,141.1448 59.09344,141.1448 C58.28704,141.1448 57.5008,140.7416 56.93632,140.17712 C56.37184,139.60256 56.04928,138.83648 56.04928,138.03008 C56.04928,136.31648 57.42016,134.85488 59.15392,134.85488 C60.28288,134.85488 61.11952,135.38912 61.76464,136.28624 L62.37952,135.71168 C61.57312,134.66336 60.50464,134.06864 59.164,134.06864 C56.97664,134.06864 55.20256,135.84272 55.20256,138.02 C55.20256,140.15696 56.97664,141.93104 59.1136,141.93104 Z M64.67776,141.8 L64.67776,139.4312 C64.67776,138.81632 64.71808,137.67728 65.60512,137.67728 C65.8168,137.67728 65.92768,137.77808 66.08896,137.88896 L66.472,137.15312 C66.24016,137.02208 66.0184,136.93136 65.74624,136.93136 C65.22208,136.93136 64.98016,137.20352 64.69792,137.57648 L64.67776,137.57648 L64.67776,137.0624 L63.87136,137.0624 L63.87136,141.8 L64.67776,141.8 Z M69.18352,141.93104 C70.1512,141.93104 70.91728,141.4472 71.37088,140.60048 L70.68544,140.20736 C70.37296,140.77184 69.92944,141.18512 69.244,141.18512 C68.32672,141.18512 67.69168,140.47952 67.69168,139.60256 L71.4112,139.60256 C71.49184,138.19136 70.69552,136.93136 69.16336,136.93136 C67.6816,136.93136 66.86512,138.08048 66.86512,139.49168 C66.86512,140.85248 67.76224,141.93104 69.18352,141.93104 Z M70.56448,138.91712 L67.732,138.91712 C67.84288,138.23168 68.47792,137.67728 69.17344,137.67728 C69.87904,137.67728 70.4536,138.23168 70.56448,138.91712 Z M74.41504,141.93104 C75.38272,141.93104 76.1488,141.4472 76.6024,140.60048 L75.91696,140.20736 C75.60448,140.77184 75.16096,141.18512 74.47552,141.18512 C73.55824,141.18512 72.9232,140.47952 72.9232,139.60256 L76.64272,139.60256 C76.72336,138.19136 75.92704,136.93136 74.39488,136.93136 C72.91312,136.93136 72.09664,138.08048 72.09664,139.49168 C72.09664,140.85248 72.99376,141.93104 74.41504,141.93104 Z M75.796,138.91712 L72.96352,138.91712 C73.0744,138.23168 73.70944,137.67728 74.40496,137.67728 C75.11056,137.67728 75.68512,138.23168 75.796,138.91712 Z M78.55792,141.8 L78.55792,139.55216 C78.55792,138.71552 78.63856,137.67728 79.73728,137.67728 C80.67472,137.67728 80.7352,138.36272 80.7352,139.1288 L80.7352,141.8 L81.5416,141.8 L81.5416,138.98768 C81.5416,137.88896 81.24928,136.93136 79.9288,136.93136 C79.33408,136.93136 78.91072,137.18336 78.57808,137.63696 L78.55792,137.63696 L78.55792,137.0624 L77.75152,137.0624 L77.75152,141.8 L78.55792,141.8 Z M57.66208,155.24 L57.66208,148.42592 L59.5168,148.42592 L59.5168,147.63968 L54.9808,147.63968 L54.9808,148.42592 L56.81536,148.42592 L56.81536,155.24 L57.66208,155.24 Z M62.27872,155.37104 C63.2464,155.37104 64.01248,154.8872 64.46608,154.04048 L63.78064,153.64736 C63.46816,154.21184 63.02464,154.62512 62.3392,154.62512 C61.42192,154.62512 60.78688,153.91952 60.78688,153.04256 L64.5064,153.04256 C64.58704,151.63136 63.79072,150.37136 62.25856,150.37136 C60.7768,150.37136 59.96032,151.52048 59.96032,152.93168 C59.96032,154.29248 60.85744,155.37104 62.27872,155.37104 Z M63.65968,152.35712 L60.8272,152.35712 C60.93808,151.67168 61.57312,151.11728 62.26864,151.11728 C62.97424,151.11728 63.5488,151.67168 63.65968,152.35712 Z M65.8672,155.24 L67.3792,153.31472 L68.88112,155.24 L69.85888,155.24 L67.89328,152.72 L69.62704,150.5024 L68.61904,150.5024 L67.3792,152.1152 L66.13936,150.5024 L65.15152,150.5024 L66.8752,152.72 L64.8592,155.24 L65.8672,155.24 Z M71.48176,155.24 L71.48176,151.24832 L72.32848,151.24832 L72.32848,150.5024 L71.48176,150.5024 L71.48176,148.79888 L70.67536,148.79888 L70.67536,150.5024 L70.18144,150.5024 L70.18144,151.24832 L70.67536,151.24832 L70.67536,155.24 L71.48176,155.24 Z M73.60864,149.2928 C73.92112,149.2928 74.1832,149.0408 74.1832,148.71824 C74.1832,148.40576 73.92112,148.14368 73.60864,148.14368 C73.29616,148.14368 73.03408,148.40576 73.03408,148.71824 C73.03408,149.0408 73.29616,149.2928 73.60864,149.2928 Z M74.01184,155.24 L74.01184,150.5024 L73.20544,150.5024 L73.20544,155.24 L74.01184,155.24 Z M76.48144,155.24 L76.48144,146.924 L75.67504,146.924 L75.67504,155.24 L76.48144,155.24 Z M79.8784,155.37104 C80.84608,155.37104 81.61216,154.8872 82.06576,154.04048 L81.38032,153.64736 C81.06784,154.21184 80.62432,154.62512 79.93888,154.62512 C79.0216,154.62512 78.38656,153.91952 78.38656,153.04256 L82.10608,153.04256 C82.18672,151.63136 81.3904,150.37136 79.85824,150.37136 C78.37648,150.37136 77.56,151.52048 77.56,152.93168 C77.56,154.29248 78.45712,155.37104 79.8784,155.37104 Z M81.25936,152.35712 L78.42688,152.35712 C78.53776,151.67168 79.1728,151.11728 79.86832,151.11728 C80.57392,151.11728 81.14848,151.67168 81.25936,152.35712 Z M84.49504,155.37104 C85.372,155.37104 86.09776,154.72592 86.09776,153.8288 C86.09776,153.0224 85.55344,152.70992 84.99904,152.468 C84.44464,152.22608 83.90032,152.07488 83.90032,151.64144 C83.90032,151.32896 84.20272,151.11728 84.48496,151.11728 C84.77728,151.11728 85.0192,151.34912 85.13008,151.60112 L85.80544,151.24832 C85.59376,150.7544 85.09984,150.37136 84.54544,150.37136 C83.77936,150.37136 83.13424,150.9056 83.13424,151.712 C83.13424,153.19376 85.2712,152.85104 85.2712,153.89936 C85.2712,154.3328 84.93856,154.62512 84.50512,154.62512 C83.97088,154.62512 83.73904,154.31264 83.53744,153.86912 L82.82176,154.17152 C83.07376,154.92752 83.68864,155.37104 84.49504,155.37104 Z M57.49072,168.81104 C58.43824,168.81104 59.25472,168.21632 59.92,167.61152 L60.73648,168.68 L61.80496,168.68 L60.51472,167.0168 L61.4824,165.88784 L60.86752,165.38384 L60.01072,166.38176 L58.408,164.33552 C59.0632,163.8416 59.74864,163.34768 59.74864,162.44048 C59.74864,161.56352 58.99264,160.94864 58.13584,160.94864 C57.18832,160.94864 56.47264,161.59376 56.47264,162.56144 C56.47264,163.1864 56.88592,163.70048 57.22864,164.17424 L57.13792,164.23472 C56.1904,164.85968 55.27312,165.46448 55.27312,166.73456 C55.27312,167.94416 56.32144,168.81104 57.49072,168.81104 Z M57.92416,163.72064 L57.74272,163.46864 C57.53104,163.15616 57.27904,162.89408 57.27904,162.50096 C57.27904,162.0272 57.64192,161.66432 58.11568,161.66432 C58.5592,161.66432 58.94224,161.96672 58.94224,162.44048 C58.94224,163.04528 58.43824,163.3376 57.99472,163.67024 L57.92416,163.72064 Z M57.44032,168.04496 C56.72464,168.04496 56.09968,167.38976 56.09968,166.67408 C56.09968,165.87776 56.78512,165.44432 57.35968,165.04112 L57.72256,164.7992 L59.416,166.97648 C58.88176,167.45024 58.19632,168.04496 57.44032,168.04496 Z M66.60304,168.68 L66.60304,165.3536 L67.21792,165.3536 C67.85296,165.3536 68.50816,165.28304 69.02224,164.8496 C69.496,164.45648 69.748,163.83152 69.748,163.21664 C69.748,162.5312 69.45568,161.876 68.8912,161.48288 C68.3368,161.10992 67.66144,161.07968 67.00624,161.07968 L65.75632,161.07968 L65.75632,168.68 L66.60304,168.68 Z M67.16752,164.56736 L66.60304,164.56736 L66.60304,161.86592 L66.91552,161.86592 C67.90336,161.86592 68.90128,161.95664 68.90128,163.19648 C68.90128,164.28512 68.09488,164.56736 67.16752,164.56736 Z M71.59264,168.68 L71.59264,166.3112 C71.59264,165.69632 71.63296,164.55728 72.52,164.55728 C72.73168,164.55728 72.84256,164.65808 73.00384,164.76896 L73.38688,164.03312 C73.15504,163.90208 72.93328,163.81136 72.66112,163.81136 C72.13696,163.81136 71.89504,164.08352 71.6128,164.45648 L71.59264,164.45648 L71.59264,163.9424 L70.78624,163.9424 L70.78624,168.68 L71.59264,168.68 Z M76.26976,168.81104 C77.64064,168.81104 78.75952,167.7224 78.75952,166.32128 C78.75952,164.93024 77.67088,163.81136 76.26976,163.81136 C74.86864,163.81136 73.78,164.93024 73.78,166.32128 C73.78,167.7224 74.89888,168.81104 76.26976,168.81104 Z M76.26976,168.06512 C75.26176,168.06512 74.5864,167.27888 74.5864,166.3112 C74.5864,165.3536 75.26176,164.55728 76.26976,164.55728 C77.27776,164.55728 77.95312,165.3536 77.95312,166.3112 C77.95312,167.27888 77.27776,168.06512 76.26976,168.06512 Z M81.91456,168.81104 C82.47904,168.81104 82.94272,168.63968 83.41648,168.3272 L83.41648,167.24864 L83.39632,167.24864 C83.0032,167.76272 82.53952,168.06512 81.85408,168.06512 C80.85616,168.06512 80.22112,167.24864 80.22112,166.3112 C80.22112,165.37376 80.92672,164.55728 81.8944,164.55728 C82.53952,164.55728 82.99312,164.87984 83.36608,165.3536 L83.38624,165.3536 L83.38624,164.28512 C82.9528,163.97264 82.43872,163.81136 81.92464,163.81136 C80.5336,163.81136 79.39456,164.9 79.39456,166.3112 C79.39456,167.73248 80.4832,168.81104 81.91456,168.81104 Z M86.56144,168.81104 C87.52912,168.81104 88.2952,168.3272 88.7488,167.48048 L88.06336,167.08736 C87.75088,167.65184 87.30736,168.06512 86.62192,168.06512 C85.70464,168.06512 85.0696,167.35952 85.0696,166.48256 L88.78912,166.48256 C88.86976,165.07136 88.07344,163.81136 86.54128,163.81136 C85.05952,163.81136 84.24304,164.96048 84.24304,166.37168 C84.24304,167.73248 85.14016,168.81104 86.56144,168.81104 Z M87.9424,165.79712 L85.10992,165.79712 C85.2208,165.11168 85.85584,164.55728 86.55136,164.55728 C87.25696,164.55728 87.83152,165.11168 87.9424,165.79712 Z M91.17808,168.81104 C92.05504,168.81104 92.7808,168.16592 92.7808,167.2688 C92.7808,166.4624 92.23648,166.14992 91.68208,165.908 C91.12768,165.66608 90.58336,165.51488 90.58336,165.08144 C90.58336,164.76896 90.88576,164.55728 91.168,164.55728 C91.46032,164.55728 91.70224,164.78912 91.81312,165.04112 L92.48848,164.68832 C92.2768,164.1944 91.78288,163.81136 91.22848,163.81136 C90.4624,163.81136 89.81728,164.3456 89.81728,165.152 C89.81728,166.63376 91.95424,166.29104 91.95424,167.33936 C91.95424,167.7728 91.6216,168.06512 91.18816,168.06512 C90.65392,168.06512 90.42208,167.75264 90.22048,167.30912 L89.5048,167.61152 C89.7568,168.36752 90.37168,168.81104 91.17808,168.81104 Z M95.2,168.81104 C96.07696,168.81104 96.80272,168.16592 96.80272,167.2688 C96.80272,166.4624 96.2584,166.14992 95.704,165.908 C95.1496,165.66608 94.60528,165.51488 94.60528,165.08144 C94.60528,164.76896 94.90768,164.55728 95.18992,164.55728 C95.48224,164.55728 95.72416,164.78912 95.83504,165.04112 L96.5104,164.68832 C96.29872,164.1944 95.8048,163.81136 95.2504,163.81136 C94.48432,163.81136 93.8392,164.3456 93.8392,165.152 C93.8392,166.63376 95.97616,166.29104 95.97616,167.33936 C95.97616,167.7728 95.64352,168.06512 95.21008,168.06512 C94.67584,168.06512 94.444,167.75264 94.2424,167.30912 L93.52672,167.61152 C93.77872,168.36752 94.3936,168.81104 95.2,168.81104 Z" id="GreenTextiles&amp;Process" fill="#252E43" fill-rule="nonzero"></path>
                <g id="Group-2" transform="translate(21.280000, 138.320000)" stroke="#252E43" stroke-width="1.4">
                    <g id="Group-31" transform="translate(0.329784, 0.447552)">
                        <path d="M10.64,10.0801801 C10.64,16.3189368 5.32018528,20.16 5.32018528,20.16 C5.32018528,20.16 0,16.2768025 0,10.0801801 C0,4.51305121 5.32018528,0 5.32018528,0 C5.32018528,0 10.64,4.51305121 10.64,10.0801801 Z" id="Stroke-1"></path>
                        <line x1="5.32" y1="0" x2="5.32" y2="22.96" id="Stroke-3"></line>
                        <line x1="1.68" y1="5.6" x2="5.6" y2="8.4" id="Stroke-5"></line>
                        <line x1="0.56" y1="10.08" x2="5.6" y2="14" id="Stroke-7"></line>
                        <line x1="9.52" y1="5.6" x2="5.6" y2="8.4" id="Stroke-9"></line>
                        <line x1="10.64" y1="10.08" x2="5.6" y2="14" id="Stroke-11"></line>
                    </g>
                </g>
                <path d="M107.702,236.48 L107.702,233.14352 L107.91368,233.14352 L110.21192,236.48 L111.25016,236.48 L108.83096,233.07296 C110.01032,232.96208 110.73608,232.15568 110.73608,230.97632 C110.73608,229.25264 109.39544,228.87968 107.954,228.87968 L106.85528,228.87968 L106.85528,236.48 L107.702,236.48 Z M107.96408,232.3976 L107.702,232.3976 L107.702,229.66592 L107.954,229.66592 C108.962,229.66592 109.88936,229.78688 109.88936,231.0368 C109.88936,232.21616 108.92168,232.3976 107.96408,232.3976 Z M114.21368,236.61104 C115.18136,236.61104 115.94744,236.1272 116.40104,235.28048 L115.7156,234.88736 C115.40312,235.45184 114.9596,235.86512 114.27416,235.86512 C113.35688,235.86512 112.72184,235.15952 112.72184,234.28256 L116.44136,234.28256 C116.522,232.87136 115.72568,231.61136 114.19352,231.61136 C112.71176,231.61136 111.89528,232.76048 111.89528,234.17168 C111.89528,235.53248 112.7924,236.61104 114.21368,236.61104 Z M115.59464,233.59712 L112.76216,233.59712 C112.87304,232.91168 113.50808,232.35728 114.2036,232.35728 C114.9092,232.35728 115.48376,232.91168 115.59464,233.59712 Z M118.83032,236.61104 C119.70728,236.61104 120.43304,235.96592 120.43304,235.0688 C120.43304,234.2624 119.88872,233.94992 119.33432,233.708 C118.77992,233.46608 118.2356,233.31488 118.2356,232.88144 C118.2356,232.56896 118.538,232.35728 118.82024,232.35728 C119.11256,232.35728 119.35448,232.58912 119.46536,232.84112 L120.14072,232.48832 C119.92904,231.9944 119.43512,231.61136 118.88072,231.61136 C118.11464,231.61136 117.46952,232.1456 117.46952,232.952 C117.46952,234.43376 119.60648,234.09104 119.60648,235.13936 C119.60648,235.5728 119.27384,235.86512 118.8404,235.86512 C118.30616,235.86512 118.07432,235.55264 117.87272,235.10912 L117.15704,235.41152 C117.40904,236.16752 118.02392,236.61104 118.83032,236.61104 Z M123.46712,236.61104 C124.4348,236.61104 125.20088,236.1272 125.65448,235.28048 L124.96904,234.88736 C124.65656,235.45184 124.21304,235.86512 123.5276,235.86512 C122.61032,235.86512 121.97528,235.15952 121.97528,234.28256 L125.6948,234.28256 C125.77544,232.87136 124.97912,231.61136 123.44696,231.61136 C121.9652,231.61136 121.14872,232.76048 121.14872,234.17168 C121.14872,235.53248 122.04584,236.61104 123.46712,236.61104 Z M124.84808,233.59712 L122.0156,233.59712 C122.12648,232.91168 122.76152,232.35728 123.45704,232.35728 C124.16264,232.35728 124.7372,232.91168 124.84808,233.59712 Z M128.6684,236.61104 C129.34376,236.61104 129.88808,236.34896 130.30136,235.8248 L130.32152,235.8248 L130.32152,236.48 L131.12792,236.48 L131.12792,231.7424 L130.32152,231.7424 L130.32152,232.41776 L130.30136,232.41776 C129.90824,231.90368 129.3236,231.61136 128.67848,231.61136 C127.2572,231.61136 126.4004,232.77056 126.4004,234.12128 C126.4004,235.43168 127.26728,236.61104 128.6684,236.61104 Z M128.77928,235.86512 C127.77128,235.86512 127.22696,234.98816 127.22696,234.0608 C127.22696,233.17376 127.84184,232.35728 128.7692,232.35728 C129.76712,232.35728 130.36184,233.13344 130.36184,234.07088 C130.36184,235.02848 129.81752,235.86512 128.77928,235.86512 Z M133.38584,236.48 L133.38584,234.1112 C133.38584,233.49632 133.42616,232.35728 134.3132,232.35728 C134.52488,232.35728 134.63576,232.45808 134.79704,232.56896 L135.18008,231.83312 C134.94824,231.70208 134.72648,231.61136 134.45432,231.61136 C133.93016,231.61136 133.68824,231.88352 133.406,232.25648 L133.38584,232.25648 L133.38584,231.7424 L132.57944,231.7424 L132.57944,236.48 L133.38584,236.48 Z M138.0428,236.61104 C138.60728,236.61104 139.07096,236.43968 139.54472,236.1272 L139.54472,235.04864 L139.52456,235.04864 C139.13144,235.56272 138.66776,235.86512 137.98232,235.86512 C136.9844,235.86512 136.34936,235.04864 136.34936,234.1112 C136.34936,233.17376 137.05496,232.35728 138.02264,232.35728 C138.66776,232.35728 139.12136,232.67984 139.49432,233.1536 L139.51448,233.1536 L139.51448,232.08512 C139.08104,231.77264 138.56696,231.61136 138.05288,231.61136 C136.66184,231.61136 135.5228,232.7 135.5228,234.1112 C135.5228,235.53248 136.61144,236.61104 138.0428,236.61104 Z M141.60104,236.48 L141.60104,234.23216 C141.60104,233.39552 141.68168,232.35728 142.7804,232.35728 C143.71784,232.35728 143.77832,233.04272 143.77832,233.8088 L143.77832,236.48 L144.58472,236.48 L144.58472,233.66768 C144.58472,232.56896 144.2924,231.61136 142.97192,231.61136 C142.3772,231.61136 141.95384,231.86336 141.6212,232.31696 L141.60104,232.2968 L141.60104,228.164 L140.79464,228.164 L140.79464,236.48 L141.60104,236.48 Z" id="Research" fill="#252E43" fill-rule="nonzero"></path>
                <circle id="Oval" stroke="#252E43" stroke-width="1.68" fill="#FFFFFF" cx="181.44" cy="268.8" r="19.04"></circle>
                <path d="M160.14208,225.8 L160.14208,222.46352 L160.35376,222.46352 L162.652,225.8 L163.69024,225.8 L161.27104,222.39296 C162.4504,222.28208 163.17616,221.47568 163.17616,220.29632 C163.17616,218.57264 161.83552,218.19968 160.39408,218.19968 L159.29536,218.19968 L159.29536,225.8 L160.14208,225.8 Z M160.40416,221.7176 L160.14208,221.7176 L160.14208,218.98592 L160.39408,218.98592 C161.40208,218.98592 162.32944,219.10688 162.32944,220.3568 C162.32944,221.53616 161.36176,221.7176 160.40416,221.7176 Z M166.65376,225.93104 C167.62144,225.93104 168.38752,225.4472 168.84112,224.60048 L168.15568,224.20736 C167.8432,224.77184 167.39968,225.18512 166.71424,225.18512 C165.79696,225.18512 165.16192,224.47952 165.16192,223.60256 L168.88144,223.60256 C168.96208,222.19136 168.16576,220.93136 166.6336,220.93136 C165.15184,220.93136 164.33536,222.08048 164.33536,223.49168 C164.33536,224.85248 165.23248,225.93104 166.65376,225.93104 Z M168.03472,222.91712 L165.20224,222.91712 C165.31312,222.23168 165.94816,221.67728 166.64368,221.67728 C167.34928,221.67728 167.92384,222.23168 168.03472,222.91712 Z M170.79664,225.8 L170.79664,223.55216 C170.79664,222.71552 170.87728,221.67728 171.976,221.67728 C172.864101,221.67728 172.965124,222.292467 172.973298,223.008598 L172.97392,225.8 L173.78032,225.8 L173.78032,222.98768 C173.78032,221.88896 173.488,220.93136 172.16752,220.93136 C171.5728,220.93136 171.14944,221.18336 170.8168,221.63696 L170.79664,221.63696 L170.79664,221.0624 L169.99024,221.0624 L169.99024,225.8 L170.79664,225.8 Z M177.20752,225.93104 C178.1752,225.93104 178.94128,225.4472 179.39488,224.60048 L178.70944,224.20736 C178.39696,224.77184 177.95344,225.18512 177.268,225.18512 C176.35072,225.18512 175.71568,224.47952 175.71568,223.60256 L179.4352,223.60256 C179.51584,222.19136 178.71952,220.93136 177.18736,220.93136 C175.7056,220.93136 174.88912,222.08048 174.88912,223.49168 C174.88912,224.85248 175.78624,225.93104 177.20752,225.93104 Z M178.58848,222.91712 L175.756,222.91712 C175.86688,222.23168 176.50192,221.67728 177.19744,221.67728 C177.90304,221.67728 178.4776,222.23168 178.58848,222.91712 Z M185.05984,226.13264 L187.40848,221.0624 L186.4912,221.0624 L185.08,224.26784 L183.59824,220.69952 L182.12656,224.26784 L180.72544,221.0624 L179.80816,221.0624 L182.13664,226.13264 L183.59824,222.60464 L185.05984,226.13264 Z M190.0696,225.93104 C190.74496,225.93104 191.28928,225.66896 191.70256,225.1448 L191.72272,225.1448 L191.72272,225.8 L192.52912,225.8 L192.52912,221.0624 L191.72272,221.0624 L191.72272,221.73776 L191.70256,221.73776 C191.30944,221.22368 190.7248,220.93136 190.07968,220.93136 C188.6584,220.93136 187.8016,222.09056 187.8016,223.44128 C187.8016,224.75168 188.66848,225.93104 190.0696,225.93104 Z M190.18048,225.18512 C189.17248,225.18512 188.62816,224.30816 188.62816,223.3808 C188.62816,222.49376 189.24304,221.67728 190.1704,221.67728 C191.16832,221.67728 191.76304,222.45344 191.76304,223.39088 C191.76304,224.34848 191.21872,225.18512 190.18048,225.18512 Z M196.44016,225.93104 C197.8312,225.93104 198.70816,224.75168 198.70816,223.4312 C198.70816,222.09056 197.84128,220.93136 196.43008,220.93136 C195.78496,220.93136 195.20032,221.22368 194.8072,221.73776 L194.78704,221.73776 L194.78704,217.484 L193.98064,217.484 L193.98064,225.8 L194.78704,225.8 L194.78704,225.1448 L194.8072,225.1448 C195.20032,225.65888 195.78496,225.93104 196.44016,225.93104 Z M196.29904,225.18512 C195.29104,225.18512 194.74672,224.30816 194.74672,223.3808 C194.74672,222.49376 195.3616,221.67728 196.28896,221.67728 C197.28688,221.67728 197.8816,222.45344 197.8816,223.39088 C197.8816,224.34848 197.33728,225.18512 196.29904,225.18512 Z M200.62336,225.8 L200.62336,217.484 L199.81696,217.484 L199.81696,225.8 L200.62336,225.8 Z M204.02032,225.93104 C204.988,225.93104 205.75408,225.4472 206.20768,224.60048 L205.52224,224.20736 C205.20976,224.77184 204.76624,225.18512 204.0808,225.18512 C203.16352,225.18512 202.52848,224.47952 202.52848,223.60256 L206.248,223.60256 C206.32864,222.19136 205.53232,220.93136 204.00016,220.93136 C202.5184,220.93136 201.70192,222.08048 201.70192,223.49168 C201.70192,224.85248 202.59904,225.93104 204.02032,225.93104 Z M205.40128,222.91712 L202.5688,222.91712 C202.67968,222.23168 203.31472,221.67728 204.01024,221.67728 C204.71584,221.67728 205.2904,222.23168 205.40128,222.91712 Z M170.20696,239.37104 C171.17464,239.37104 171.94072,238.8872 172.39432,238.04048 L171.70888,237.64736 C171.3964,238.21184 170.95288,238.62512 170.26744,238.62512 C169.35016,238.62512 168.71512,237.91952 168.71512,237.04256 L172.43464,237.04256 C172.51528,235.63136 171.71896,234.37136 170.1868,234.37136 C168.70504,234.37136 167.88856,235.52048 167.88856,236.93168 C167.88856,238.29248 168.78568,239.37104 170.20696,239.37104 Z M171.58792,236.35712 L168.75544,236.35712 C168.86632,235.67168 169.50136,235.11728 170.19688,235.11728 C170.90248,235.11728 171.47704,235.67168 171.58792,236.35712 Z M174.34984,239.24 L174.34984,236.99216 C174.34984,236.15552 174.43048,235.11728 175.5292,235.11728 C176.46664,235.11728 176.52712,235.80272 176.52712,236.5688 L176.52712,239.24 L177.33352,239.24 L177.33352,236.42768 C177.33352,235.32896 177.0412,234.37136 175.72072,234.37136 C175.126,234.37136 174.70264,234.62336 174.37,235.07696 L174.34984,235.07696 L174.34984,234.5024 L173.54344,234.5024 L173.54344,239.24 L174.34984,239.24 Z M180.76072,239.37104 C181.7284,239.37104 182.49448,238.8872 182.94808,238.04048 L182.26264,237.64736 C181.95016,238.21184 181.50664,238.62512 180.8212,238.62512 C179.90392,238.62512 179.26888,237.91952 179.26888,237.04256 L182.9884,237.04256 C183.06904,235.63136 182.27272,234.37136 180.74056,234.37136 C179.2588,234.37136 178.44232,235.52048 178.44232,236.93168 C178.44232,238.29248 179.33944,239.37104 180.76072,239.37104 Z M182.14168,236.35712 L179.3092,236.35712 C179.42008,235.67168 180.05512,235.11728 180.75064,235.11728 C181.45624,235.11728 182.0308,235.67168 182.14168,236.35712 Z M184.86328,239.24 L184.86328,236.8712 C184.86328,236.25632 184.9036,235.11728 185.79064,235.11728 C186.00232,235.11728 186.1132,235.21808 186.27448,235.32896 L186.65752,234.59312 C186.42568,234.46208 186.20392,234.37136 185.93176,234.37136 C185.4076,234.37136 185.16568,234.64352 184.88344,235.01648 L184.86328,235.01648 L184.86328,234.5024 L184.05688,234.5024 L184.05688,239.24 L184.86328,239.24 Z M189.42952,241.88096 C190.1452,241.88096 190.82056,241.6088 191.26408,241.04432 C191.694771,240.485338 191.742255,239.876373 191.747329,239.209851 L191.74792,234.5024 L190.94152,234.5024 L190.94152,235.17776 L190.92136,235.17776 C190.52824,234.66368 189.96376,234.37136 189.30856,234.37136 C187.90744,234.37136 187.0204,235.5608 187.0204,236.89136 C187.0204,238.21184 187.89736,239.37104 189.27832,239.37104 C189.92344,239.37104 190.52824,239.07872 190.92136,238.5848 L190.94152,238.5848 L190.94152,239.14928 C190.94152,240.21776 190.66936,241.13504 189.41944,241.13504 C188.54248,241.13504 187.91752,240.59072 187.90744,239.70368 L187.10104,239.70368 C187.13128,241.04432 188.10904,241.88096 189.42952,241.88096 Z M189.39928,238.62512 C188.39128,238.62512 187.84696,237.74816 187.84696,236.8208 C187.84696,235.93376 188.46184,235.11728 189.3892,235.11728 C190.38712,235.11728 190.98184,235.89344 190.98184,236.83088 C190.98184,237.78848 190.43752,238.62512 189.39928,238.62512 Z M194.09656,241.90112 L197.59432,234.5024 L196.67704,234.5024 L195.14488,237.89936 L193.4716,234.5024 L192.53416,234.5024 L194.71144,238.79648 L193.17928,241.90112 L194.09656,241.90112 Z" id="Renewableenergy" fill="#252E43" fill-rule="nonzero"></path>
                <g id="Group-28" transform="translate(173.040000, 262.080000)" stroke="#052233" stroke-linecap="round" stroke-linejoin="round" stroke-width="1.456">
                    <path d="M13.1526007,11.7365905 C14.991392,11.3592528 16.2480874,9.63518288 16.05952,7.74856611 C15.8709527,5.86194934 14.2984816,4.42668478 12.422166,4.42859047 L11.5018181,4.42859047 C10.8354859,1.82146862 8.50844813,4.17443857e-13 5.84402246,4.17443857e-13 C3.1795968,4.17443857e-13 0.852559028,1.82146872 0.186226875,4.42859059 C-0.480105278,7.03571245 0.683019294,9.76822412 3.01416597,11.0722268" id="Path"></path>
                    <polyline id="Path" points="8.76999205 7.38131775 5.84825292 11.8104087 10.2308616 11.8104087 7.30912249 16.2394996"></polyline>
                </g>
                <g id="Group-29" transform="translate(117.040000, 260.400000)" stroke="#252E43" stroke-linecap="round" stroke-linejoin="round" stroke-width="1.4">
                    <polygon id="Path" points="8.4 0 16.8 5.46 16.8 11.34 8.4 16.8 0 11.34 0 5.46"></polygon>
                    <line x1="8.4" y1="16.8" x2="8.4" y2="11.34" id="Path"></line>
                    <polyline id="Path" points="16.8 5.46 8.4 11.34 0 5.46"></polyline>
                    <polyline id="Path" points="0 11.34 8.4 5.46 16.8 11.34"></polyline>
                    <line x1="8.4" y1="0" x2="8.4" y2="5.46" id="Path"></line>
                </g>
            </g>
        </g>
    </g>
</svg>