<?xml version="1.0" encoding="UTF-8"?>
<svg width="61px" height="61px" viewBox="0 0 61 61" version="1.1" xmlns="http://www.w3.org/2000/svg" xmlns:xlink="http://www.w3.org/1999/xlink">
    <!-- Generator: Sketch 60.1 (88133) - https://sketch.com -->
    <title>Group 50</title>
    <desc>Created with Sketch.</desc>
    <defs>
        <polygon id="path-1" points="0 0.36582 60.2346 0.36582 60.2346 60.6 0 60.6"></polygon>
    </defs>
    <g id="Eco" stroke="none" stroke-width="1" fill="none" fill-rule="evenodd">
        <g id="09-01-Eco-mobile" transform="translate(-130.000000, -5061.000000)">
            <g id="Group-50" transform="translate(130.000000, 5061.000000)">
                <g id="Group-8">
                    <g id="Group-3" transform="translate(0.000000, 0.234600)">
                        <mask id="mask-2" fill="white">
                            <use xlink:href="#path-1"></use>
                        </mask>
                        <g id="Clip-2"></g>
                        <path d="M30.1176,3.36582 C15.165,3.36582 3,15.53082 3,30.48282 C3,45.43602 15.165,57.60042 30.1176,57.60042 C45.0702,57.60042 57.2346,45.43602 57.2346,30.48282 C57.2346,15.53082 45.0702,3.36582 30.1176,3.36582 M30.1176,60.60042 C13.5102,60.60042 0,47.08962 0,30.48282 C0,13.87662 13.5102,0.36582 30.1176,0.36582 C46.7244,0.36582 60.2346,13.87662 60.2346,30.48282 C60.2346,47.08962 46.7244,60.60042 30.1176,60.60042" id="Fill-1" fill="#252E43" mask="url(#mask-2)"></path>
                    </g>
                    <path d="M33.28632,15.66486 C33.64392,16.42326 33.28812,17.89386 33.66852,18.62826 C32.05512,20.75406 35.40672,21.21246 36.15432,23.12166 C36.83172,24.85266 36.20532,26.94546 35.96292,29.24106 C35.85192,30.29226 35.96292,31.58586 35.96292,32.77746 C35.96292,34.03386 35.74572,35.30886 35.86752,36.21966 C35.92512,36.65106 36.16452,37.05066 36.24972,37.46286 C36.87552,40.48626 36.73632,44.04786 35.10252,45.58986 C33.61272,45.61206 31.73472,45.56046 29.84472,45.58986 C26.93832,45.63306 24.31812,46.21926 23.72532,43.96446 C23.45832,39.53106 24.37392,34.30806 24.10812,29.62326 C23.98152,27.39546 23.17332,25.03026 24.01212,23.12166 C24.68412,21.59466 27.74112,20.46246 26.11572,18.81966 C26.84592,17.98986 26.14872,16.68906 26.68932,15.85566 C27.53232,14.55726 31.97892,14.99106 33.28632,15.66486" id="Fill-4" fill="#252E43"></path>
                    <polyline id="Fill-6" fill="#252E43" points="48.3297 8.643 6.4173 49.3056 9.6195 52.0656 51.2703 11.445"></polyline>
                </g>
            </g>
        </g>
    </g>
</svg>