<?xml version="1.0" encoding="utf-8"?>
<svg width="54px" height="36px" viewBox="0 0 54 36" version="1.1" xmlns:xlink="http://www.w3.org/1999/xlink" xmlns="http://www.w3.org/2000/svg">
  <desc>Created with Lunacy</desc>
  <g id="Group-9" transform="translate(0.75 0.75)">
    <g id="Group-8">
      <g id="Group-5">
        <g id="Group-4">
          <path d="M13.3043 24.75L17.7391 24.75L17.7391 11.25L8.86957 0L4.43478 0L0 0" transform="translate(34.02717 5)" id="Stroke-1" fill="none" stroke="#252E43" stroke-width="1.5" stroke-linecap="round" stroke-linejoin="round" />
          <path d="M13.5 11.25L0 11.25L0 0" transform="translate(38 5)" id="Stroke-9" fill="none" stroke="#252E43" stroke-width="1.5" stroke-linecap="round" stroke-linejoin="round" />
          <path d="M0 0L0 6.75L8 6.75" transform="translate(2.983696 23)" id="Stroke-3" fill="none" stroke="#252E43" stroke-width="1.5" stroke-linecap="round" stroke-linejoin="round" />
          <path d="M0 22.5L33.75 22.5L33.75 0L0 0L0 22.5Z" id="Stroke-7" fill="none" stroke="#252E43" stroke-width="1.5" stroke-linecap="round" stroke-linejoin="round" />
          <path d="M9 4.5C9 6.984 6.984 9 4.5 9C2.016 9 0 6.984 0 4.5C0 2.016 2.016 0 4.5 0C6.984 0 9 2.016 9 4.5Z" transform="translate(11.25 24.75)" id="Stroke-10" fill="none" stroke="#252E43" stroke-width="1.5" stroke-linecap="round" stroke-linejoin="round" />
          <path d="M9 4.5C9 6.984 6.984 9 4.5 9C2.016 9 0 6.984 0 4.5C0 2.016 2.016 0 4.5 0C6.984 0 9 2.016 9 4.5Z" transform="translate(38.25 24.75)" id="Stroke-11" fill="none" stroke="#252E43" stroke-width="1.5" stroke-linecap="round" stroke-linejoin="round" />
        </g>
        <path d="M16.7023 0.5L0 0.5" transform="translate(20.875 28.875)" id="Stroke-6" fill="none" stroke="#252E43" stroke-width="1.5" stroke-linecap="round" stroke-linejoin="round" />
      </g>
      <g id="Group-6" transform="translate(6.886911 3)">
        <path d="M5.86482 10.9191C9.10329 10.9191 11.729 8.29902 11.729 5.06861C11.729 2.90434 10.5489 1.01272 8.797 0L7.92025 1.51394C9.14861 2.22364 9.97798 3.54965 9.97798 5.06769C9.97798 7.33517 8.13521 9.17062 5.86322 9.17062C3.59214 9.17062 1.74937 7.3338 1.74937 5.06769L0 5.06609C0 8.29765 2.62452 10.9166 5.86482 10.9191" transform="translate(2.494494 2.15365)" id="Fill-14" fill="#252E43" stroke="none" />
        <path d="M8.35931 15.5602C12.9747 15.5602 16.7163 11.8295 16.7163 7.22305C16.7163 4.13558 15.0366 1.44132 12.5377 0L11.6623 1.51188C13.6367 2.65224 14.9656 4.78317 14.9656 7.22214C14.9656 10.8629 12.0082 13.8147 8.35931 13.812C4.7104 13.812 1.7512 10.8606 1.7512 7.21986L0 7.21986C0 11.8249 3.74163 15.5602 8.35931 15.5602" id="Fill-15" fill="#252E43" stroke="none" />
        <path d="M3.36941 6.27382C5.23027 6.27382 6.74019 4.77061 6.74019 2.9121C6.74019 1.66807 6.0626 0.58137 5.054 0L4.17954 1.51417C4.66301 1.7932 4.98807 2.31589 4.98807 2.9121C4.98807 3.80402 4.26287 4.52628 3.36941 4.52628C2.47687 4.52628 1.75098 3.80357 1.75098 2.9121L0 2.9121C0 4.7681 1.50924 6.27382 3.36941 6.27382" transform="translate(4.988347 4.309172)" id="Fill-16" fill="#252E43" stroke="none" />
      </g>
    </g>
  </g>
</svg>