<?xml version="1.0" encoding="UTF-8"?>
<svg width="57px" height="57px" viewBox="0 0 57 57" version="1.1" xmlns="http://www.w3.org/2000/svg" xmlns:xlink="http://www.w3.org/1999/xlink">
    <!-- Generator: Sketch 60.1 (88133) - https://sketch.com -->
    <title>Group 11</title>
    <desc>Created with Sketch.</desc>
    <g id="Eco" stroke="none" stroke-width="1" fill="none" fill-rule="evenodd">
        <g id="09-01-Eco-mobile" transform="translate(-130.000000, -6828.000000)" fill="#252E43">
            <g id="Group-11" transform="translate(129.999700, 6828.000360)">
                <polygon id="Fill-1" points="27.64938 2.8476 24.66558 2.8458 27.08658 4.584 26.17998 7.3962 28.56258 5.6574 30.94518 7.3962 30.03858 4.584 32.45778 2.8458 29.47398 2.8458 28.56258 -3.86801702e-13"></polygon>
                <polygon id="Fill-2" points="13.8483 10.7103 16.2303 8.9709 18.6105 10.7103 17.7063 7.8981 20.1243 6.1581 17.1399 6.1581 16.2291 3.3099 15.3153 6.1617 12.3345 6.1581 14.7507 7.8981"></polygon>
                <polygon id="Fill-3" points="7.20492 12.35154 6.29292 15.20514 3.31212 15.20334 5.72952 16.94094 4.82232 19.75374 7.20492 18.01554 9.58992 19.75374 8.68272 16.94094 11.10132 15.20334 8.11872 15.20334"></polygon>
                <polygon id="Fill-4" points="2.9838 27.52452 -6.57252031e-14 27.51792 2.4192 29.25972 1.5132 32.06952 3.8952 30.33132 6.276 32.06952 5.373 29.25972 7.7922 27.51792 4.8084 27.51792 3.8952 24.66912"></polygon>
                <polygon id="Fill-5" points="8.11896 39.87126 7.20516 37.02306 6.29316 39.87546 3.31176 39.87126 5.72976 41.61066 4.82256 44.42346 7.20516 42.68226 9.58956 44.42346 8.68236 41.61066 11.10156 39.87126"></polygon>
                <polygon id="Fill-6" points="17.1594 48.91458 16.2462 46.06638 15.3348 48.91638 12.3504 48.91458 14.7696 50.65218 13.8654 53.46438 16.248 51.72558 18.6306 53.46438 17.7234 50.65218 20.1414 48.91458"></polygon>
                <polygon id="Fill-7" points="27.65262 52.19226 24.66882 52.18926 27.08682 53.92746 26.18142 56.74146 28.56702 55.00146 30.94542 56.74146 30.04002 53.92746 32.46042 52.18926 29.47542 52.18926 28.56222 49.33866"></polygon>
                <polygon id="Fill-8" points="41.79222 48.91458 40.88082 46.06638 39.96642 48.91638 36.98682 48.91458 39.40302 50.65218 38.49822 53.46438 40.88082 51.72558 43.26342 53.46438 42.35502 50.65218 44.77842 48.91458"></polygon>
                <polygon id="Fill-9" points="50.83794 39.87126 49.92234 37.02306 49.00554 39.87546 46.02534 39.87126 48.44934 41.61066 47.53734 44.42346 49.92234 42.68226 52.30554 44.42346 51.39534 41.61066 53.81754 39.87126"></polygon>
                <polygon id="Fill-10" points="52.28418 27.48672 49.29858 27.48492 51.71958 29.22312 50.81418 32.03592 53.19498 30.29412 55.57698 32.03592 54.67338 29.22312 57.09258 27.48492 54.10818 27.48492 53.19498 24.63432"></polygon>
                <polygon id="Fill-11" points="47.53734 19.71558 49.92234 17.97798 52.30554 19.71558 51.39534 16.90338 53.81754 15.16698 50.83794 15.16698 49.92234 12.31758 49.00554 15.17118 46.02534 15.16698 48.44934 16.90338"></polygon>
                <polygon id="Fill-12" points="40.91622 3.31404 40.00242 6.16344 37.01862 6.15804 39.43722 7.90164 38.53422 10.71204 40.91862 8.97084 43.29822 10.71204 42.39102 7.90164 44.81382 6.15804 41.82702 6.15804"></polygon>
                <polygon id="Fill-13" points="24.15198 26.42454 24.15198 27.99474 26.91078 27.99474 26.91078 30.07374 24.15198 30.07374 24.15198 31.70094 27.06558 31.70094 27.06558 33.78054 21.70518 33.78054 21.70518 24.34494 27.06558 24.34494 27.06558 26.42454"></polygon>
                <path d="M31.06956,29.45154 C31.06956,30.52674 31.09776,30.73914 31.33836,31.13574 C31.60716,31.58814 32.11656,31.85634 32.70936,31.85634 C33.33276,31.85634 33.88356,31.55994 34.13916,31.09254 C34.35156,30.72474 34.39356,30.44154 34.39356,29.45154 L34.39356,24.34494 L36.84096,24.34494 L36.84096,29.79114 C36.84096,31.17714 36.60036,31.92714 35.92116,32.69034 C35.14356,33.56754 34.04016,34.02054 32.66796,34.02054 C31.22556,34.02054 29.95236,33.48354 29.30196,32.60634 C28.80696,31.94094 28.62276,31.17714 28.62276,29.79114 L28.62276,24.34494 L31.06956,24.34494 L31.06956,29.45154 Z" id="Fill-14"></path>
            </g>
        </g>
    </g>
</svg>