<?xml version="1.0" encoding="UTF-8"?>
<svg width="285px" height="184px" viewBox="0 0 285 184" version="1.1" xmlns="http://www.w3.org/2000/svg" xmlns:xlink="http://www.w3.org/1999/xlink">
    <!-- Generator: Sketch 60.1 (88133) - https://sketch.com -->
    <title>Group 58</title>
    <desc>Created with Sketch.</desc>
    <g id="Eco" stroke="none" stroke-width="1" fill="none" fill-rule="evenodd">
        <g id="09-01-Eco-mobile" transform="translate(-20.000000, -8925.000000)">
            <g id="Group-58" transform="translate(20.140000, 8926.000000)">
                <rect id="Rectangle" fill="#252E43" x="41.1354881" y="144.156182" width="33.2668113" height="1"></rect>
                <circle id="Oval" fill="#252E43" cx="44.2157484" cy="144.156182" r="3.0802603"></circle>
                <circle id="Oval" fill="#252E43" cx="150.792755" cy="144.156182" r="3.0802603"></circle>
                <polygon id="Rectangle" fill="#252E43" transform="translate(89.803601, 124.750542) rotate(-270.000000) translate(-89.803601, -124.750542) " points="73.1701952 124.442516 106.437007 124.442516 106.437007 125.058568 73.1701952 125.058568"></polygon>
                <circle id="Oval" fill="#252E43" cx="89.8036009" cy="107.809111" r="3.0802603"></circle>
                <path d="M52.6601986,181.119306 C51.1822472,181.119306 49.7986333,180.330282 49.0474287,179.062957 L48.2298386,177.676929 C48.0132122,177.310347 47.6079111,177.076433 47.1746582,177.076433 L40.4033352,177.076433 C38.090324,177.076433 36.2070716,175.198138 36.2070716,172.886928 L36.2070716,137.925504 C36.2070716,135.614293 38.090324,133.735998 40.4033352,133.735998 L72.362722,133.735998 C72.8588664,133.735998 73.3026012,133.439242 73.4912759,132.985379 L78.1557321,121.963488 C78.2954911,121.628328 78.2850092,121.258255 78.1242863,120.937059 L70.0532047,104.849358 C69.9413975,104.629409 69.7701928,104.447864 69.5535663,104.332652 L66.4439288,102.614955 C64.8017607,101.707229 63.9876646,99.9336715 64.3685079,98.0972716 C64.7493511,96.2608717 66.2028446,94.9586337 68.0721211,94.7770885 L71.4088669,94.4524018 C71.9259752,94.400033 72.359228,94.0229775 72.4850111,93.5132543 C73.0754929,91.0204985 75.2766969,89.6484355 77.481395,90.0953161 L79.8013942,90.5771092 C80.4652494,90.5980567 80.7762132,90.4339678 81.0103095,90.1337199 L89.8465715,79.0036002 C90.335728,78.3891394 90.9821133,77.9248026 91.722836,77.6594672 L99.5598213,74.859481 C99.8148814,74.7687084 100.04199,74.5906544 100.188737,74.3532491 L110.600781,57.7628073 C111.540661,56.2755328 113.343552,55.5249131 115.055599,55.8949861 L117.994032,56.5408682 C118.420297,56.5618157 118.577526,56.5408682 118.720779,56.4780256 L125.320897,53.7792858 C125.628367,53.6570919 125.862463,53.4196866 125.988246,53.1229299 C126.114029,52.8191908 126.114029,52.4840303 125.984752,52.1802912 L123.699693,46.6885477 L119.587284,34.3120502 C119.339212,33.5684129 119.307766,32.7724069 119.492947,32.0078221 L121.694151,22.9200864 C122.005115,21.6457785 122.90656,20.5774546 124.104994,20.0572576 L127.403306,18.636317 C129.999329,17.5051505 133.098485,19.4637444 133.255714,22.2532568 L133.685472,30.0108245 C133.716918,30.6392503 133.608605,31.2641849 133.371015,31.8332594 L129.433305,41.4167533 C129.276076,41.7973 129.318004,42.2302156 129.548606,42.5723585 L133.461858,48.3573674 C133.688966,48.6960191 134.06981,48.8950206 134.478605,48.8950206 L144.450409,47.9558731 C144.499324,47.9488906 144.799806,47.9349256 144.845228,47.9349256 C146.452456,47.9349256 147.895468,48.8356693 148.608238,50.2775574 L151.899563,56.9842575 C152.203538,57.6057008 152.766068,57.6685434 152.993177,57.6685434 C153.185345,57.6685434 153.824743,57.6126833 154.121731,56.9249062 L157.137031,49.8725719 C157.643657,48.6890366 158.642934,47.8162229 159.886789,47.47408 L172.129676,44.1329493 C172.912327,43.9304566 173.705459,44.3633721 173.943049,45.1314481 L174.481121,46.9015142 C174.63835,47.4112374 175.120519,47.7673454 175.655097,47.7673454 L182.947022,47.7673454 C183.478106,47.7673454 183.942805,47.4286937 184.110516,46.9329355 L187.513647,36.654682 L190.976176,22.392907 C191.437381,20.5041382 193.114488,19.1879353 195.064126,19.1879353 C196.056415,19.1879353 197.024246,19.5475345 197.782439,20.2003991 L200.560149,22.5779435 C201.437136,23.3285632 202.07304,22.8258225 202.401473,22.2846781 L205.353882,17.442308 C205.574002,17.0792175 205.591472,16.6183719 205.399304,16.2448076 L202.167377,10.0129182 C201.604847,8.927138 201.541956,7.65632133 201.996172,6.52515484 L203.554485,2.63240596 C204.197376,1.03341136 205.724243,-7.531753e-13 207.446773,-7.531753e-13 L222.048093,-7.531753e-13 C222.746888,-7.531753e-13 223.351346,0.485284389 223.498093,1.16957029 C223.648334,1.85036494 223.298936,2.5451246 222.663033,2.83489873 L220.004118,4.04287282 C219.420624,4.30820817 219.137612,4.98551156 219.357733,5.5825161 L222.166888,13.1725036 C222.313635,13.5565416 222.400985,13.9824747 222.425442,14.4223727 L223.208093,30.9290245 C223.232551,31.4911164 223.637852,31.9624358 224.186406,32.074156 L234.912908,34.2526988 C236.789173,34.6297543 238.172787,36.2322402 238.267124,38.1454477 L238.557124,43.9130003 C238.5711,44.237687 238.721341,44.5484086 238.965919,44.7648664 L244.863748,50.0192046 C246.009772,51.0421422 246.498928,52.5503642 246.167001,54.0481124 C245.835073,55.5528431 244.758929,56.7154309 243.284472,57.1588202 L241.775074,57.6161746 C241.163629,57.8047023 240.793268,58.4366194 240.936521,59.061554 L241.918327,63.3767447 C242.047604,63.9353454 242.540255,64.3263659 243.116761,64.3263659 L250.565915,64.3263659 C252.64483,64.3263659 254.388323,65.8171316 254.713263,67.8699893 L255.558805,73.2604864 C255.604226,73.529313 255.733503,73.7771921 255.936154,73.9692111 L263.591453,81.112318 C263.724224,81.2345119 263.874465,81.3252845 264.042175,81.3811446 L280.977471,86.9601694 C282.703494,87.5292439 283.86,89.1282385 283.86,90.9401997 L283.86,94.97609 C283.86,96.3621181 283.175181,97.6573735 282.029157,98.4394145 L260.565671,113.088719 C261.040851,113.34358 261.467116,113.692706 261.820007,114.118639 L262.581694,115.043821 C263.371332,115.993443 263.692778,117.239821 263.476151,118.454777 C263.256031,119.666242 262.522296,120.71711 261.456634,121.335062 L257.127599,123.848765 C255.052178,125.053248 252.176637,124.121083 251.19483,121.949523 L249.954469,119.201906 C249.315072,117.780965 249.510734,116.133093 250.46459,114.904171 C250.698686,114.603923 250.782541,114.219885 250.68471,113.849812 C250.590373,113.479739 250.331819,113.179491 249.982421,113.025876 L245.653386,111.161546 C245.499652,111.091721 245.335435,111.0603 245.16423,111.0603 L235.171462,113.106175 C234.794113,113.182983 234.469173,113.444827 234.30845,113.797444 L223.892912,136.651196 C223.753153,136.965409 223.746165,137.325008 223.88243,137.642712 L224.032671,137.988347 C224.553273,139.206794 224.4799,140.561401 223.823032,141.710024 C223.169659,142.858647 222.048093,143.61974 220.737853,143.794303 L217.45701,144.237692 C217.030745,144.300535 216.667372,144.572853 216.496167,144.967365 L215.339662,147.638174 C214.40677,149.788787 211.643036,150.76983 209.546652,149.687541 L208.536893,149.160361 C208.222435,148.992781 207.83111,148.975325 207.4887,149.114975 L198.547619,152.896004 C198.110872,153.08104 197.817378,153.503482 197.799909,153.974801 L197.436535,163.219644 C197.429547,163.37675 197.450511,163.526874 197.502921,163.666524 L200.416896,172.097904 C200.857136,173.368721 200.671956,174.733801 199.910269,175.837038 C199.148583,176.943765 197.943162,177.607104 196.597981,177.655981 L195.567259,177.694385 C195.563765,177.694385 195.560271,177.694385 195.556777,177.694385 C193.939067,177.694385 192.558946,176.905362 191.811236,175.641527 L191.056537,174.374202 C190.34726,173.180193 190.273887,171.717357 190.864369,170.460506 C191.084489,169.982204 191.391959,169.559762 191.765814,169.207145 L188.960153,168.068996 C188.160032,167.747801 187.485695,167.192691 187.014009,166.46651 L180.054011,155.702972 C179.610276,155.022178 179.379674,154.233154 179.379674,153.423183 L179.379674,142.663136 C179.379674,142.300046 179.218951,141.957903 178.939433,141.720498 L170.826424,134.93699 C170.648231,134.786866 170.435099,134.692602 170.20799,134.661181 L164.299679,133.819789 C163.115221,133.648717 162.056547,132.985379 161.39968,131.993862 L158.918958,128.279168 L150.348238,115.965513 C149.880045,115.309157 148.810889,115.298683 148.339202,115.962021 L144.135951,121.94254 C143.863421,122.333561 143.838963,122.853758 144.076553,123.262235 L153.286671,139.063653 C153.367032,139.203303 153.478839,139.325497 153.61161,139.426743 L159.526909,143.909514 L166.909678,147.823211 C167.611967,148.193284 168.188473,148.755376 168.583292,149.439662 L172.279917,155.849605 C172.562929,156.118432 172.741122,156.50247 172.741122,156.924912 C172.741122,157.741865 172.077267,158.408695 171.252689,158.408695 C171.235219,158.408695 171.207267,158.412186 171.182809,158.408695 C170.938231,158.408695 170.690159,158.349343 170.466544,158.223658 L166.581244,156.090502 L166.270281,156.212696 L167.699316,160.646589 C168.087148,161.854563 167.919437,163.149818 167.22763,164.21116 L163.426185,170.100906 C163.066306,170.652525 162.391969,170.900404 161.756065,170.718858 C161.123656,170.533822 160.690403,169.954274 160.690403,169.297918 L160.690403,162.846079 L159.390644,156.778279 C159.320765,156.460575 159.125102,156.181274 158.852572,156.006712 L144.670529,147.048152 C144.499324,146.943415 144.328119,146.814238 144.163903,146.674588 L136.48764,140.013274 C135.764387,139.384848 135.275231,138.522509 135.10752,137.583361 L133.737882,129.89911 C133.664509,129.476668 133.374509,129.127542 132.972702,128.970436 L126.578728,126.474189 C126.194391,126.331048 125.729692,126.390399 125.387282,126.64526 L122.896078,128.544503 C121.90379,129.302105 120.583067,129.577914 119.38114,129.28814 L117.630659,128.872681 C116.973791,128.883155 116.599936,129.022805 116.372828,129.326544 L114.024877,132.451217 C113.385479,133.306574 112.452588,133.87914 111.393914,134.067668 L98.5011469,136.336983 C97.9595809,136.431247 97.5437979,136.878128 97.4913882,137.422763 L96.9288583,143.28458 C96.7925933,144.667117 95.9819912,145.892547 94.7695819,146.559377 L85.087778,151.862592 C84.801272,152.019699 84.5881396,152.285034 84.5007902,152.599247 L80.6888638,166.01963 C80.528141,166.581722 80.2556109,167.101919 79.8747677,167.555782 L72.0307944,176.961222 C71.255132,177.893387 70.1126023,178.441514 68.8932051,178.469444 L58.6279074,178.657971 C58.4357388,178.661463 58.2400762,178.713831 58.0653775,178.804604 L54.6377883,180.644495 C54.0333306,180.948234 53.3485116,181.119306 52.6601986,181.119306 Z" id="Shape" stroke="#C1C4D0" stroke-width="2" fill-rule="nonzero"></path>
                <path d="M145.214078,138.603037 L145.214078,127.293037 L143.954078,127.293037 L143.954078,138.603037 L145.214078,138.603037 Z M148.769078,138.603037 L148.769078,132.663037 L150.029078,132.663037 L150.029078,131.553037 L148.769078,131.553037 L148.769078,129.018037 L147.569078,129.018037 L147.569078,131.553037 L146.834078,131.553037 L146.834078,132.663037 L147.569078,132.663037 L147.569078,138.603037 L148.769078,138.603037 Z M153.884078,138.798037 C154.889078,138.798037 155.699078,138.408037 156.314078,137.628037 L156.344078,137.628037 L156.344078,138.603037 L157.544078,138.603037 L157.544078,131.553037 L156.344078,131.553037 L156.344078,132.558037 L156.314078,132.558037 C155.729078,131.793037 154.859078,131.358037 153.899078,131.358037 C151.784078,131.358037 150.509078,133.083037 150.509078,135.093037 C150.509078,137.043037 151.799078,138.798037 153.884078,138.798037 Z M154.049078,137.688037 C152.549078,137.688037 151.739078,136.383037 151.739078,135.003037 C151.739078,133.683037 152.654078,132.468037 154.034078,132.468037 C155.519078,132.468037 156.404078,133.623037 156.404078,135.018037 C156.404078,136.443037 155.594078,137.688037 154.049078,137.688037 Z M160.934078,138.603037 L160.934078,126.228037 L159.734078,126.228037 L159.734078,138.603037 L160.934078,138.603037 Z M164.324078,142.563037 L169.529078,131.553037 L168.164078,131.553037 L165.884078,136.608037 L163.394078,131.553037 L161.999078,131.553037 L165.239078,137.943037 L162.959078,142.563037 L164.324078,142.563037 Z" id="Italy" fill="#252E43" fill-rule="nonzero"></path>
                <circle id="Oval" fill="#FFFFFF" cx="89.8036009" cy="144.772234" r="12.3210412"></circle>
                <path d="M148.715417,175.848049 C148.712242,175.851971 148.710295,175.855189 148.70956,175.857551 C148.71213,175.848873 148.712809,175.840825 148.714894,175.836071 Z M148.714894,175.836071 C148.718288,175.828334 148.725407,175.829318 148.750463,175.8505 L152.1913,178.743366 C152.290701,178.826906 152.468475,178.887202 152.666411,178.887202 L157.945428,178.887202 C158.266179,178.887202 158.457383,178.751929 158.46078,178.720235 L159.034144,173.022674 C159.031571,173.048594 159.018759,173.027282 158.922601,172.973108 C158.748217,172.874036 158.484377,172.847759 158.252016,172.914063 L148.962013,175.716178 C148.817907,175.760219 148.737356,175.820945 148.715417,175.848049 Z" id="Shape" stroke="#C1C4D0" stroke-width="2" fill-rule="nonzero"></path>
                <path d="M124.99353,159.557484 C124.873748,159.557484 124.750971,159.537595 124.634184,159.497817 C124.232913,159.36854 123.918485,159.027115 123.786724,158.592876 L121.903148,152.291437 C121.732458,151.721291 121.906143,151.098108 122.337359,150.730165 L126.101516,147.528066 C126.41295,147.266196 126.817215,147.173382 127.18854,147.279455 C127.565855,147.385529 127.877288,147.677232 128.038995,148.071693 L130.353787,153.836135 C130.587362,154.422855 130.437634,155.105704 129.988451,155.506795 L125.793077,159.245892 C125.565491,159.45141 125.281008,159.557484 124.99353,159.557484 Z" id="Shape" stroke="#C1C4D0" stroke-width="2" fill-rule="nonzero"></path>
                <path d="M94.1909274,171.494577 C94.2351888,171.494577 94.2797336,171.477414 94.3251291,171.43645 L98.5198003,167.697979 C98.6509476,167.580873 98.7025363,167.345146 98.6232084,167.145869 L96.3111205,161.388093 C96.2627723,161.270154 96.1868805,161.199353 96.1112622,161.178086 C96.0652587,161.164944 96.0037559,161.179025 95.9468631,161.226842 L92.1838463,164.427969 C92.05852,164.534906 91.9998542,164.74572 92.0586577,164.942139 L93.9410397,171.239613 C93.9812487,171.372129 94.0617039,171.458434 94.1539905,171.48831 C94.1657155,171.492304 94.1794911,171.494577 94.1909274,171.494577 Z" id="Shape" stroke="#C1C4D0" stroke-width="2" fill-rule="nonzero" transform="translate(95.348069, 166.334056) rotate(63.000000) translate(-95.348069, -166.334056) "></path>
                <path d="M88.6701607,173.048573 L88.6701607,170.232638 C88.6685701,170.232704 88.6677369,170.232883 88.6677805,170.232827 L86.983581,172.12528 L87.8166839,173.780826 C87.8148784,173.776965 87.8167861,173.776813 87.8414197,173.781776 C87.823536,173.777907 87.8181465,173.77743 87.8222756,173.77743 C87.8288113,173.77743 87.8281326,173.777681 87.8313168,173.774912 L88.6701607,173.048573 Z" id="Path" stroke="#C1C4D0" stroke-width="2" fill-rule="nonzero" transform="translate(87.822005, 172.005196) rotate(71.000000) translate(-87.822005, -172.005196) "></path>
                <path d="M107.285163,163.373094 L107.285163,160.55716 C107.283572,160.557226 107.282739,160.557405 107.282782,160.557349 L105.598583,162.449802 L106.431686,164.105348 C106.42988,164.101486 106.431788,164.101335 106.456422,164.106298 C106.438538,164.102429 106.433149,164.101952 106.437278,164.101952 C106.443813,164.101952 106.443135,164.102202 106.446319,164.099434 L107.285163,163.373094 Z" id="Path" stroke="#C1C4D0" stroke-width="2" fill-rule="nonzero" transform="translate(106.437007, 162.329718) rotate(71.000000) translate(-106.437007, -162.329718) "></path>
                <g id="Group-6" transform="translate(79.330716, 135.531453)" fill="#252E43">
                    <path d="M10.2995443,16.1069528 C14.2896764,16.1069528 17.5247662,12.8787818 17.5247662,8.89857127 C17.5247662,6.23196809 16.0708091,3.90129277 13.9122963,2.65352056 L12.8320527,4.51884858 C14.3455219,5.39327385 15.3673815,7.02705362 15.3673815,8.89744588 C15.3673815,11.6912177 13.0968957,13.9526818 10.29757,13.9526818 C7.49937245,13.9526818 5.2288866,11.6895296 5.2288866,8.89744588 L3.07347631,8.89547645 C3.07347631,12.8770937 6.30715584,16.103858 10.2995443,16.1069528" id="Fill-14"></path>
                    <path d="M10.2995443,19.1718021 C15.9861947,19.1718021 20.5962681,14.5751612 20.5962681,8.89955598 C20.5962681,5.09546846 18.5266004,1.7758598 15.4477652,-5.24025268e-14 L14.3692139,1.86279591 C16.8018773,3.26784088 18.4391656,5.89336745 18.4391656,8.89843059 C18.4391656,13.384221 14.7953883,17.0211886 10.2995443,17.0178124 C5.80370028,17.0178124 2.15766668,13.3814075 2.15766668,8.89561713 L3.55271368e-14,8.89561713 C3.55271368e-14,14.5695342 4.61007344,19.1718021 10.2995443,19.1718021" id="Fill-15"></path>
                    <path d="M10.2976264,13.0393463 C12.590394,13.0393463 14.4507822,11.1872415 14.4507822,8.89736148 C14.4507822,7.36458514 13.6159203,6.02565662 12.3732171,5.30934815 L11.295794,7.17495753 C11.8914792,7.51876309 12.2919873,8.16276548 12.2919873,8.89736148 C12.2919873,9.99630134 11.3984595,10.8862007 10.2976264,10.8862007 C9.1979215,10.8862007 8.30354751,9.99573864 8.30354751,8.89736148 L6.14616288,8.89736148 C6.14616288,11.1841467 8.0057049,13.0393463 10.2976264,13.0393463" id="Fill-16"></path>
                </g>
                <rect id="Rectangle" fill="#252E43" x="103.356746" y="144.156182" width="49.2841649" height="1"></rect>
                <path d="M78.6504555,102.872017 L78.6504555,97.2620174 L82.4154555,97.2620174 L82.4154555,96.0920174 L78.6504555,96.0920174 L78.6504555,92.7320174 L82.5354555,92.7320174 L82.5354555,91.5620174 L77.3904555,91.5620174 L77.3904555,102.872017 L78.6504555,102.872017 Z M85.7004555,102.872017 L85.7004555,99.3470174 C85.7004555,98.4320174 85.7604555,96.7370174 87.0804555,96.7370174 C87.3954555,96.7370174 87.5604555,96.8870174 87.8004555,97.0520174 L88.3704555,95.9570174 C88.0254555,95.7620174 87.6954555,95.6270174 87.2904555,95.6270174 C86.5104555,95.6270174 86.1504555,96.0320174 85.7304555,96.5870174 L85.7004555,96.5870174 L85.7004555,95.8220174 L84.5004555,95.8220174 L84.5004555,102.872017 L85.7004555,102.872017 Z M92.3604555,103.067017 C93.3654555,103.067017 94.1754555,102.677017 94.7904555,101.897017 L94.8204555,101.897017 L94.8204555,102.872017 L96.0204555,102.872017 L96.0204555,95.8220174 L94.8204555,95.8220174 L94.8204555,96.8270174 L94.7904555,96.8270174 C94.2054555,96.0620174 93.3354555,95.6270174 92.3754555,95.6270174 C90.2604555,95.6270174 88.9854555,97.3520174 88.9854555,99.3620174 C88.9854555,101.312017 90.2754555,103.067017 92.3604555,103.067017 Z M92.5254555,101.957017 C91.0254555,101.957017 90.2154555,100.652017 90.2154555,99.2720174 C90.2154555,97.9520174 91.1304555,96.7370174 92.5104555,96.7370174 C93.9954555,96.7370174 94.8804555,97.8920174 94.8804555,99.2870174 C94.8804555,100.712017 94.0704555,101.957017 92.5254555,101.957017 Z M99.4404555,102.872017 L99.4404555,99.5270174 C99.4404555,98.2820174 99.5604555,96.7370174 101.195456,96.7370174 C102.590456,96.7370174 102.680456,97.7570174 102.680456,98.8970174 L102.680456,102.872017 L103.880456,102.872017 L103.880456,98.6870174 C103.880456,97.0520174 103.445456,95.6270174 101.480456,95.6270174 C100.595456,95.6270174 99.9654555,96.0020174 99.4704555,96.6770174 L99.4404555,96.6770174 L99.4404555,95.8220174 L98.2404555,95.8220174 L98.2404555,102.872017 L99.4404555,102.872017 Z M109.205456,103.067017 C110.045456,103.067017 110.735456,102.812017 111.440456,102.347017 L111.440456,100.742017 L111.410456,100.742017 C110.825456,101.507017 110.135456,101.957017 109.115456,101.957017 C107.630456,101.957017 106.685456,100.742017 106.685456,99.3470174 C106.685456,97.9520174 107.735456,96.7370174 109.175456,96.7370174 C110.135456,96.7370174 110.810456,97.2170174 111.365456,97.9220174 L111.395456,97.9220174 L111.395456,96.3320174 C110.750456,95.8670174 109.985456,95.6270174 109.220456,95.6270174 C107.150456,95.6270174 105.455456,97.2470174 105.455456,99.3470174 C105.455456,101.462017 107.075456,103.067017 109.205456,103.067017 Z M116.120456,103.067017 C117.560456,103.067017 118.700456,102.347017 119.375456,101.087017 L118.355456,100.502017 C117.890456,101.342017 117.230456,101.957017 116.210456,101.957017 C114.845456,101.957017 113.900456,100.907017 113.900456,99.6020174 L119.435456,99.6020174 C119.555456,97.5020174 118.370456,95.6270174 116.090456,95.6270174 C113.885456,95.6270174 112.670456,97.3370174 112.670456,99.4370174 C112.670456,101.462017 114.005456,103.067017 116.120456,103.067017 Z M118.175456,98.5820174 L113.960456,98.5820174 C114.125456,97.5620174 115.070456,96.7370174 116.105456,96.7370174 C117.155456,96.7370174 118.010456,97.5620174 118.175456,98.5820174 Z" id="France" fill="#252E43" fill-rule="nonzero"></path>
                <path d="M1.26,137.691974 L1.26,132.741974 L2.175,132.741974 C3.12,132.741974 4.095,132.636974 4.86,131.991974 C5.565,131.406974 5.94,130.476974 5.94,129.561974 C5.94,128.541974 5.505,127.566974 4.665,126.981974 C3.84,126.426974 2.835,126.381974 1.86,126.381974 L-8.52651283e-14,126.381974 L-8.52651283e-14,137.691974 L1.26,137.691974 Z M2.1,131.571974 L1.26,131.571974 L1.26,127.551974 L1.725,127.551974 C3.195,127.551974 4.68,127.686974 4.68,129.531974 C4.68,131.151974 3.48,131.571974 2.1,131.571974 Z M10.62,137.886974 C12.66,137.886974 14.325,136.266974 14.325,134.181974 C14.325,132.111974 12.705,130.446974 10.62,130.446974 C8.535,130.446974 6.915,132.111974 6.915,134.181974 C6.915,136.266974 8.58,137.886974 10.62,137.886974 Z M10.62,136.776974 C9.12,136.776974 8.115,135.606974 8.115,134.166974 C8.115,132.741974 9.12,131.556974 10.62,131.556974 C12.12,131.556974 13.125,132.741974 13.125,134.166974 C13.125,135.606974 12.12,136.776974 10.62,136.776974 Z M17.115,137.691974 L17.115,134.166974 C17.115,133.251974 17.175,131.556974 18.495,131.556974 C18.81,131.556974 18.975,131.706974 19.215,131.871974 L19.785,130.776974 C19.44,130.581974 19.11,130.446974 18.705,130.446974 C17.925,130.446974 17.565,130.851974 17.145,131.406974 L17.115,131.406974 L17.115,130.641974 L15.915,130.641974 L15.915,137.691974 L17.115,137.691974 Z M22.26,137.691974 L22.26,131.751974 L23.52,131.751974 L23.52,130.641974 L22.26,130.641974 L22.26,128.106974 L21.06,128.106974 L21.06,130.641974 L20.325,130.641974 L20.325,131.751974 L21.06,131.751974 L21.06,137.691974 L22.26,137.691974 Z M27.3,137.886974 C29.385,137.886974 30.09,136.581974 30.09,134.706974 L30.09,130.641974 L28.89,130.641974 L28.89,134.571974 C28.89,135.756974 28.755,136.776974 27.3,136.776974 C25.9032,136.776974 25.722912,135.836942 25.7107238,134.713327 L25.71,130.641974 L24.51,130.641974 L24.51,134.706974 C24.51,136.581974 25.215,137.886974 27.3,137.886974 Z M35.19,141.621974 C36.255,141.621974 37.26,141.216974 37.92,140.376974 C38.625,139.461974 38.64,138.456974 38.64,137.346974 L38.64,130.641974 L37.44,130.641974 L37.44,131.646974 L37.41,131.646974 C36.825,130.881974 35.985,130.446974 35.01,130.446974 C32.925,130.446974 31.605,132.216974 31.605,134.196974 C31.605,136.161974 32.91,137.886974 34.965,137.886974 C35.925,137.886974 36.825,137.451974 37.41,136.716974 L37.44,136.716974 L37.44,137.556974 C37.44,139.146974 37.035,140.511974 35.175,140.511974 C33.87,140.511974 32.94,139.701974 32.925,138.381974 L31.725,138.381974 C31.77,140.376974 33.225,141.621974 35.19,141.621974 Z M35.145,136.776974 C33.645,136.776974 32.835,135.471974 32.835,134.091974 C32.835,132.771974 33.75,131.556974 35.13,131.556974 C36.615,131.556974 37.5,132.711974 37.5,134.106974 C37.5,135.531974 36.69,136.776974 35.145,136.776974 Z M43.755,137.886974 C44.76,137.886974 45.57,137.496974 46.185,136.716974 L46.215,136.716974 L46.215,137.691974 L47.415,137.691974 L47.415,130.641974 L46.215,130.641974 L46.215,131.646974 L46.185,131.646974 C45.6,130.881974 44.73,130.446974 43.77,130.446974 C41.655,130.446974 40.38,132.171974 40.38,134.181974 C40.38,136.131974 41.67,137.886974 43.755,137.886974 Z M43.92,136.776974 C42.42,136.776974 41.61,135.471974 41.61,134.091974 C41.61,132.771974 42.525,131.556974 43.905,131.556974 C45.39,131.556974 46.275,132.711974 46.275,134.106974 C46.275,135.531974 45.465,136.776974 43.92,136.776974 Z M50.805,137.691974 L50.805,125.316974 L49.605,125.316974 L49.605,137.691974 L50.805,137.691974 Z" id="Portugal" fill="#252E43" fill-rule="nonzero"></path>
            </g>
        </g>
    </g>
</svg>