<?xml version="1.0" encoding="UTF-8"?>
<svg width="43px" height="43px" viewBox="0 0 43 43" version="1.1" xmlns="http://www.w3.org/2000/svg" xmlns:xlink="http://www.w3.org/1999/xlink">
    <!-- Generator: Sketch 60.1 (88133) - https://sketch.com -->
    <title>Group 22</title>
    <desc>Created with Sketch.</desc>
    <g id="Eco" stroke="none" stroke-width="1" fill="none" fill-rule="evenodd">
        <g id="09-01-Eco-mobile" transform="translate(-133.000000, -11570.000000)" fill="#252E43">
            <g id="Group-22" transform="translate(133.000000, 11570.111600)">
                <g id="Group-3">
                    <path d="M15.7908718,33.46842 C15.79746,29.67582 13.03266,26.91942 9.21606,26.9134121 C5.42166,26.90802 2.63946,29.65602 2.63164595,33.41622 C2.62446,37.21122 5.38566,39.96402 9.20466,39.9670235 C13.00686,39.97062 15.78426,37.23042 15.7908718,33.46842 L15.7908718,33.46842 Z M15.79146,27.15102 L15.79146,26.66802 C15.79086,24.68082 15.79206,22.69422 15.79086,20.70702 C15.78846,16.98102 15.84306,13.25262 15.76206,9.52722 C15.70506,6.96762 14.55066,4.93422 12.19386,3.80802 C9.83046,2.68002 7.46286,2.83482 5.30046,4.36062 C3.40866,5.69562 2.63886,7.64382 2.63466,9.91062 C2.62506,15.51522 2.63046,21.11982 2.63046,26.72502 L2.63046,27.12102 C6.76386,23.08422 12.29826,23.65182 15.79146,27.15102 L15.79146,27.15102 Z M39.44946,39.95622 L39.44946,9.72042 L18.42306,9.72042 L18.42306,10.46922 C18.42366,18.03462 18.41586,25.60122 18.42846,33.16602 C18.43266,35.69262 17.54286,37.84062 15.82806,39.67002 C15.75366,39.74922 15.68766,39.83742 15.58986,39.95622 L39.44946,39.95622 Z M6e-05,34.29222 L6e-05,9.04242 C0.02406,8.95122 0.05826,8.86002 0.07086,8.76702 C0.58566,4.86642 3.55686,1.58562 7.39086,0.69222 C7.72146,0.61482 8.05506,0.55602 8.38866,0.48822 L10.03386,0.48822 C10.09686,0.51162 10.15746,0.54582 10.22286,0.55602 C13.89726,1.14522 16.35846,3.25602 17.79546,6.62622 C17.94666,6.98022 18.10386,7.07742 18.46926,7.07742 C25.78506,7.06542 33.10146,7.07742 40.41666,7.05642 C41.22666,7.05522 41.79186,7.30542 42.11046,8.05602 L42.11046,41.61222 C41.91666,42.07722 41.58726,42.40602 41.12406,42.60042 L8.38866,42.60042 C8.31246,42.57582 8.23746,42.53802 8.15886,42.52902 C4.29006,42.01602 1.00026,38.99802 0.18366,35.20662 C0.11886,34.90362 0.06066,34.59762 6e-05,34.29222 L6e-05,34.29222 Z" id="Fill-1"></path>
                </g>
                <path d="M11.1198189,33.55104 C11.124,32.28804 10.4298,31.58424 9.174,31.5788096 C7.899,31.57344 7.1754,32.28864 7.1754,33.55284 C7.176,34.80384 7.8918,35.52504 9.1332,35.5262404 C10.4232,35.52684 11.1156,34.83864 11.1198189,33.55104 M13.7520146,33.56664 C13.7442,35.93124 11.5098,38.16024 9.1488,38.1584411 C6.7968,38.15604 4.5372,35.89944 4.54318808,33.55764 C4.5492,31.17864 6.795,28.94484 9.1794,28.9466389 C11.529,28.94844 13.7586,31.20204 13.7520146,33.56664" id="Fill-4"></path>
            </g>
        </g>
    </g>
</svg>