<?xml version="1.0" encoding="UTF-8"?>
<svg width="57px" height="30px" viewBox="0 0 57 30" version="1.1" xmlns="http://www.w3.org/2000/svg" xmlns:xlink="http://www.w3.org/1999/xlink">
    <!-- Generator: Sketch 60.1 (88133) - https://sketch.com -->
    <title>NO</title>
    <desc>Created with Sketch.</desc>
    <g id="Eco" stroke="none" stroke-width="1" fill="none" fill-rule="evenodd">
        <g id="09-01-Eco-mobile" transform="translate(-129.000000, -11268.000000)" fill="#252E43" fill-rule="nonzero">
            <path d="M153.028,11298.116 L153.028,11269.856 L149.644,11269.856 L149.644,11289.908 L129.268,11268.56 L129.268,11297 L132.652,11297 L132.652,11276.768 L153.028,11298.116 Z M170.884,11297.576 C178.768,11297.576 185.104,11291.492 185.104,11283.428 C185.104,11275.652 178.66,11269.28 170.884,11269.28 C163.108,11269.28 156.664,11275.652 156.664,11283.428 C156.664,11291.492 163,11297.576 170.884,11297.576 Z M170.884,11294.408 C165.016,11294.408 160.048,11289.62 160.048,11283.428 C160.048,11277.488 164.512,11272.448 170.884,11272.448 C177.256,11272.448 181.72,11277.488 181.72,11283.428 C181.72,11289.62 176.752,11294.408 170.884,11294.408 Z" id="NO"></path>
        </g>
    </g>
</svg>