<?xml version="1.0" encoding="UTF-8"?>
<svg width="61px" height="59px" viewBox="0 0 61 59" version="1.1" xmlns="http://www.w3.org/2000/svg" xmlns:xlink="http://www.w3.org/1999/xlink">
    <!-- Generator: Sketch 60.1 (88133) - https://sketch.com -->
    <title>Group 20</title>
    <desc>Created with Sketch.</desc>
    <g id="Eco" stroke="none" stroke-width="1" fill="none" fill-rule="evenodd">
        <g id="09-01-Eco-mobile" transform="translate(-128.000000, -11401.000000)" fill="#252E43">
            <g id="Group-20" transform="translate(128.000000, 11401.000000)">
                <path d="M10.3290963,54.06906 L12.3618963,54.06906 L9.57069632,56.86026 L11.5308963,58.81986 L17.6604963,52.68966 L11.5170963,46.54686 L9.55809632,48.50706 L12.3480963,51.29766 L10.3290963,51.29766 C6.99549632,51.29766 4.54569632,50.23686 3.43389632,48.30786 C2.31909632,46.38126 2.62509632,43.73046 4.29249632,40.84086 L18.8268963,15.66786 L16.4262963,14.28246 L1.89129632,39.45666 C-0.290903675,43.23726 -0.595103675,46.87386 1.03269632,49.69326 C2.66229632,52.51506 5.96289632,54.06906 10.3290963,54.06906" id="Fill-7"></path>
                <path d="M60.8263563,36.21792 L52.6093563,33.45552 L49.8367563,41.68692 L52.4629563,42.57192 L53.8231563,38.53452 L55.1557563,40.84332 C56.8231563,43.73052 57.1291563,46.38012 56.0137563,48.30792 C54.9037563,50.23692 52.4545563,51.29832 49.1191563,51.29832 L21.6715563,51.29832 L21.6715563,54.06912 L49.1191563,54.06912 C53.4859563,54.06912 56.7883563,52.51512 58.4167563,49.69332 C60.0445563,46.87452 59.7391563,43.23732 57.5569563,39.45672 L56.5441563,37.70472 L59.9389563,38.84652 L60.8263563,36.21792 Z" id="Fill-1"></path>
                <path d="M21.1150563,8.898 L21.0238563,8.919 L21.0034563,8.8344 L21.1150563,8.898 Z M27.4102563,10.2888 L26.7874563,7.5876 L22.9852563,8.4654 L23.6872563,7.2504 C25.3534563,4.3614 27.4984563,2.7714 29.7226563,2.7714 C31.9492563,2.7714 34.0912563,4.3614 35.7586563,7.2492 L49.6750563,31.3524 L52.0762563,29.967 L38.1598563,5.8626 C35.9776563,2.0844 32.9788563,-1.19015908e-13 29.7226563,-1.19015908e-13 C26.4658563,-1.19015908e-13 23.4694563,2.0844 21.2860563,5.8638 L20.5942563,7.0626 L19.6948563,3.1734 L16.9936563,3.7992 L18.9472563,12.2424 L27.4102563,10.2888 Z" id="Fill-4"></path>
                <path d="M33.8386563,24.48744 C33.5758563,26.12424 32.1586563,27.37464 30.4462563,27.37464 C28.7326563,27.37464 27.3154563,26.12424 27.0514563,24.48744 L18.8260563,24.48744 L18.8260563,32.77704 L23.7370563,32.77704 L23.7370563,45.10164 L36.1840563,45.10164 L36.1840563,32.77704 L41.0950563,32.77704 L41.0950563,24.48744 L33.8386563,24.48744 Z" id="Fill-9"></path>
            </g>
        </g>
    </g>
</svg>