<?xml version="1.0" encoding="utf-8"?>
<svg width="37px" height="36px" viewBox="0 0 37 36" version="1.1" xmlns:xlink="http://www.w3.org/1999/xlink" xmlns="http://www.w3.org/2000/svg">
  <desc>Created with Lunacy</desc>
  <g id="Group">
    <path d="M24 1.60838L18.9634 0L17.2639 4.79193L18.8736 5.30694L19.7074 2.95721L20.5241 4.30093C21.5463 5.98135 21.734 7.52433 21.0502 8.64632C20.3697 9.76932 18.8687 10.387 16.8244 10.387L0 10.387L0 12L16.8244 12C19.5008 12 21.5247 11.0952 22.5232 9.45306C23.5212 7.81147 23.334 5.69421 21.996 3.49368L21.3757 2.47286L23.4561 3.13859L24 1.60838Z" transform="translate(12.99986 20.0006)" id="Fill-3" fill="#252E43" stroke="none" />
    <path d="M5.86273 4.59815L6.23522 6.23529L1.16897 7.4198L0 2.30253L1.6166 1.9233L2.15511 4.28008L2.56911 3.55406C3.87626 1.26216 5.66991 0 7.6196 0C9.56929 0 11.364 1.26216 12.6701 3.55299L21 18.1607L19.5631 19L11.2332 4.39284C10.2344 2.64347 8.95249 1.67969 7.6196 1.67969C6.28776 1.67969 5.00478 2.64347 4.00708 4.3939L3.58678 5.13056L5.86273 4.59815ZM2.41255 5.40502L2.46719 5.39225L2.40047 5.35342L2.41255 5.40502Z" transform="translate(9.999864 0.0006)" id="Fill-5" fill="#252E43" fill-rule="evenodd" stroke="none" />
    <path d="M6.03465 24.1199L7.22227 24.1199L5.59211 25.8124L6.73666 27L10.3185 23.284L6.72897 19.56L5.58442 20.7482L7.21458 22.4401L6.03465 22.4401C4.08707 22.4401 2.65588 21.7969 2.00617 20.6279C1.35493 19.4589 1.53389 17.8521 2.50819 16.101L11 0.840142L9.59701 0L1.1052 15.2609C-0.170111 17.5531 -0.347536 19.758 0.603177 21.4675C1.55543 23.1776 3.48352 24.1199 6.03465 24.1199" transform="translate(-0.0001359834 9.0006)" id="Fill-8" fill="#252E43" stroke="none" />
  </g>
</svg>