<?xml version="1.0" encoding="utf-8"?>
<svg width="36px" height="36px" viewBox="0 0 36 36" version="1.1" xmlns:xlink="http://www.w3.org/1999/xlink" xmlns="http://www.w3.org/2000/svg">
  <desc>Created with Lunacy</desc>
  <g id="Fill-2">
    <path d="M34.2254 6.63736L34.2254 4.95444L28.9629 4.95444L28.9629 10.2297L30.6458 10.2297L30.6458 7.68772C33.0237 10.5915 34.3176 14.1966 34.3176 18C34.3176 26.9971 26.9975 34.3165 18.0003 34.3165C9.00253 34.3165 1.68295 26.9971 1.68295 18C1.68295 9.00346 9.00253 1.68345 18.0003 1.68345L18.0003 0C8.07473 0 0 8.07514 0 18C0 27.9254 8.07473 36 18.0003 36C27.9242 36 36 27.9254 36 18C36 13.8092 34.576 9.83853 31.9605 6.63736L34.2254 6.63736Z" transform="translate(-0.0001359834 0.0006)" id="Fill-1" fill="#252E43" stroke="none" />
  </g>
</svg>

