<?xml version="1.0" encoding="UTF-8"?>
<svg width="60px" height="60px" viewBox="0 0 60 60" version="1.1" xmlns="http://www.w3.org/2000/svg" xmlns:xlink="http://www.w3.org/1999/xlink">
    <!-- Generator: Sketch 60.1 (88133) - https://sketch.com -->
    <title>Group 49</title>
    <desc>Created with Sketch.</desc>
    <defs>
        <polygon id="path-1" points="0 59.29104 59.2896 59.29104 59.2896 0.00024 0 0.00024"></polygon>
    </defs>
    <g id="Eco" stroke="none" stroke-width="1" fill="none" fill-rule="evenodd">
        <g id="09-01-Eco-mobile" transform="translate(-126.000000, -4924.000000)">
            <g id="Group-49" transform="translate(126.000000, 4924.000000)">
                <g id="Group-15">
                    <g id="Group-13">
                        <path d="M29.2053,15.87762 C23.8731,15.87762 19.5351,20.21502 19.5351,25.54662 L19.5351,32.07522 C19.5351,37.40802 23.8731,41.74542 29.2053,41.74542 L30.0831,41.74542 C35.4159,41.74542 39.7533,37.40802 39.7533,32.07522 L39.7533,25.54662 C39.7533,20.21502 35.4159,15.87762 30.0831,15.87762 L29.2053,15.87762 Z M30.0831,44.74542 L29.2053,44.74542 C22.2189,44.74542 16.5351,39.06222 16.5351,32.07522 L16.5351,25.54662 C16.5351,18.56142 22.2189,12.87762 29.2053,12.87762 L30.0831,12.87762 C37.0695,12.87762 42.7533,18.56142 42.7533,25.54662 L42.7533,32.07522 C42.7533,39.06222 37.0695,44.74542 30.0831,44.74542 L30.0831,44.74542 Z" id="Fill-1" fill="#252E43"></path>
                        <mask id="mask-2" fill="white">
                            <use xlink:href="#path-1"></use>
                        </mask>
                        <g id="Clip-4"></g>
                        <polygon id="Fill-3" fill="#F8F7F5" mask="url(#mask-2)" points="23.8848 46.47864 35.0214 46.47864 35.0214 38.14884 23.8848 38.14884"></polygon>
                        <polygon id="Fill-5" fill="#252E43" mask="url(#mask-2)" points="22.3848 46.47864 25.3848 46.47864 25.3848 37.20564 22.3848 37.20564"></polygon>
                        <polygon id="Fill-6" fill="#252E43" mask="url(#mask-2)" points="26.289 46.47864 29.289 46.47864 29.289 40.76124 26.289 40.76124"></polygon>
                        <polygon id="Fill-7" fill="#252E43" mask="url(#mask-2)" points="30.0774 46.47864 33.0774 46.47864 33.0774 40.76124 30.0774 40.76124"></polygon>
                        <polygon id="Fill-8" fill="#252E43" mask="url(#mask-2)" points="28.1442 37.52004 31.1442 37.52004 31.1442 29.38704 28.1442 29.38704"></polygon>
                        <polygon id="Fill-9" fill="#252E43" mask="url(#mask-2)" points="33.9702 46.47864 36.9702 46.47864 36.9702 37.20564 33.9702 37.20564"></polygon>
                        <path d="M56.367,10.93116 L56.367,8.15976 L47.7,8.15976 L47.7,16.84776 L50.4714,16.84776 L50.4714,12.66096 C54.3876,17.44416 56.5182,23.38116 56.5182,29.64576 C56.5182,44.46336 44.463,56.51856 29.6448,56.51856 C14.8266,56.51856 2.7714,44.46336 2.7714,29.64576 C2.7714,14.82876 14.8266,2.77236 29.6448,2.77236 L29.6448,-0.00024 C13.2984,-0.00024 0,13.29936 0,29.64576 C0,45.99276 13.2984,59.29116 29.6448,59.29116 C45.9888,59.29116 59.2896,45.99276 59.2896,29.64576 C59.2896,22.74336 56.9448,16.20336 52.6368,10.93116 L56.367,10.93116 Z" id="Fill-10" fill="#252E43" mask="url(#mask-2)"></path>
                        <path d="M28.40136,29.38698 L25.40136,29.38698 C25.40136,29.07618 25.14876,28.82358 24.83796,28.82358 C24.52716,28.82358 24.27396,29.07618 24.27396,29.38698 L21.27396,29.38698 C21.27396,27.42258 22.87296,25.82358 24.83796,25.82358 C26.80296,25.82358 28.40136,27.42258 28.40136,29.38698" id="Fill-11" fill="#252E43" mask="url(#mask-2)"></path>
                        <path d="M38.32248,29.38698 L35.32248,29.38698 C35.32248,29.07618 35.06988,28.82358 34.75908,28.82358 C34.44828,28.82358 34.19508,29.07618 34.19508,29.38698 L31.19508,29.38698 C31.19508,27.42258 32.79408,25.82358 34.75908,25.82358 C36.72408,25.82358 38.32248,27.42258 38.32248,29.38698" id="Fill-12" fill="#252E43" mask="url(#mask-2)"></path>
                    </g>
                </g>
            </g>
        </g>
    </g>
</svg>