<?xml version="1.0" encoding="UTF-8"?>
<svg width="245px" height="83px" viewBox="0 0 245 83" version="1.1" xmlns="http://www.w3.org/2000/svg" xmlns:xlink="http://www.w3.org/1999/xlink">
    <!-- Generator: Sketch 60.1 (88133) - https://sketch.com -->
    <title>Group 41</title>
    <desc>Created with Sketch.</desc>
    <defs>
        <polygon id="path-1" points="7.20229875e-05 0.12906 17.0006004 0.12906 17.0006004 40.2 7.20229875e-05 40.2"></polygon>
        <polygon id="path-3" points="0 0 50.5 0 50.5 50.5 0 50.5"></polygon>
    </defs>
    <g id="Eco" stroke="none" stroke-width="1" fill="none" fill-rule="evenodd">
        <g id="09-01-Eco-mobile" transform="translate(-36.000000, -3896.000000)">
            <g id="Group-41" transform="translate(-78.000000, 3896.000000)">
                <g id="Group-10" transform="translate(114.500000, 0.000000)">
                    <path d="M54.9251277,32.58528 L47.505146,30.09908 L45.0014416,37.50588 L47.372865,38.30188 L48.6015328,34.66968 L49.8045073,36.74568 C51.3103832,39.34348 51.5865876,41.72848 50.5793248,43.46288 C49.5770803,45.19728 47.365438,46.15248 44.3538869,46.15248 L19.5691606,46.15248 L19.5691606,48.64608 L44.3538869,48.64608 C48.2968248,48.64608 51.2786679,47.24788 52.7494161,44.70908 C54.2193613,42.17128 53.9431569,38.89968 51.972792,35.49948 L51.0584672,33.92108 L54.1242153,34.95008 L54.9251277,32.58528 Z" id="Fill-1" fill="#FFFFFF"></path>
                    <path d="M19.0666131,8.0056 L18.9841131,8.0246 L18.9660474,7.9476 L19.0666131,8.0056 Z M24.7510839,9.256 L24.1888394,6.8258 L20.755354,7.6166 L21.3892591,6.5232 C22.8945328,3.9242 24.830573,2.4934 26.8388759,2.4934 C28.8493869,2.4934 30.7838212,3.9242 32.2896971,6.521 L44.8555912,28.2076 L47.0236752,26.9602 L34.457781,5.2748 C32.4874161,1.8734 29.7795693,-6.39488462e-14 26.8388759,-6.39488462e-14 C23.8981825,-6.39488462e-14 21.1925438,1.8734 19.2211752,5.276 L18.5961022,6.3544 L17.7839489,2.8552 L15.3448796,3.4182 L17.1088942,11.0146 L24.7510839,9.256 Z" id="Fill-3" fill="#FFFFFF"></path>
                    <g id="Group-7" transform="translate(0.000000, 12.720180)">
                        <mask id="mask-2" fill="white">
                            <use xlink:href="#path-1"></use>
                        </mask>
                        <g id="Clip-6"></g>
                        <path d="M9.32709672,35.92586 L11.1625712,35.92586 L8.64240693,38.43626 L10.4122427,40.20006 L15.946969,34.68486 L10.3999982,29.15806 L8.6307646,30.92086 L11.1503266,33.43226 L9.32709672,33.43226 C6.31695073,33.43226 4.10490693,32.47706 3.10065511,30.74266 C2.09439599,29.00826 2.37060036,26.62326 3.87647628,24.02446 L17.0006004,1.37626 L14.8329179,0.12906 L1.70819161,22.77706 C-0.262574818,26.17966 -0.537374088,29.45106 0.932571168,31.98886 C2.40392153,34.52766 5.38415876,35.92586 9.32709672,35.92586" id="Fill-5" fill="#FFFFFF" mask="url(#mask-2)"></path>
                    </g>
                </g>
                <text id="Recycle" font-family="ChronicleDisplay-Roman, Chronicle Display" font-size="15" font-weight="normal" line-spacing="20" fill="#FFFFFF">
                    <tspan x="117.19" y="74">Recycle </tspan>
                </text>
                <g id="Group-5" transform="translate(93.500000, 62.000000)" fill="#FFFFFF" font-family="ChronicleDisplay-Roman, Chronicle Display" font-size="15" font-weight="normal" line-spacing="20">
                    <text id="Reuse">
                        <tspan x="122.605" y="11.9999749">Reuse </tspan>
                    </text>
                </g>
                <g id="Group" transform="translate(209.000000, 0.000000)">
                    <mask id="mask-4" fill="white">
                        <use xlink:href="#path-3"></use>
                    </mask>
                    <g id="Clip-2"></g>
                    <path d="M48.0106713,9.3115747 L48.0106713,6.95008045 L40.6285419,6.95008045 L40.6285419,14.3508941 L42.9890858,14.3508941 L42.9890858,10.7848895 C46.3247146,14.8583521 48.1394562,19.9145357 48.1394562,25.2502555 C48.1394562,37.870784 37.8714226,48.1395278 25.25,48.1395278 C12.6285774,48.1395278 2.36054384,37.870784 2.36054384,25.2502555 C2.36054384,12.6312602 12.6285774,2.36251632 25.25,2.36251632 L25.25,0 C11.3269309,0 0,11.3286311 0,25.2502555 C0,39.173413 11.3269309,50.5 25.25,50.5 C39.1710249,50.5 50.5,39.173413 50.5,25.2502555 C50.5,19.3718161 48.5028133,13.8020421 44.8334683,9.3115747 L48.0106713,9.3115747 Z" id="Fill-1" fill="#FFFFFF" mask="url(#mask-4)"></path>
                </g>
                <text id="Reduce" font-family="ChronicleDisplay-Roman, Chronicle Display" font-size="15" font-weight="normal" line-spacing="20" fill="#FFFFFF">
                    <tspan x="312.2625" y="74">Reduce </tspan>
                </text>
                <g id="Group-8" transform="translate(312.000000, 4.000000)" fill="#FFFFFF">
                    <polygon id="Fill-1" points="28.9230769 28.9230769 28.9230769 37.1797258 31.5573107 37.1797258 31.5573107 33.4206382 45.1368171 47 47 45.1375637 33.4199233 31.5576316 37.1611169 31.5576316 37.1611169 28.9230769"></polygon>
                    <polygon id="Fill-2" points="1.86192479 0 0 1.8635768 13.5792199 15.4423684 9.83826231 15.4423684 9.83826231 18.0769231 18.0769231 18.0769231 18.0769231 9.82027421 15.4422852 9.82027421 15.4422852 13.5793618"></polygon>
                    <polygon id="Fill-3" points="9.82001373 28.9230769 9.82001373 31.5576316 13.5792199 31.5576316 0 45.1375637 1.86249506 47 15.4422852 33.4206382 15.4422852 37.162048 18.0769231 37.162048 18.0769231 28.9230769"></polygon>
                    <polygon id="Fill-4" points="45.1368171 0 31.5573107 13.5793618 31.5573107 9.83795195 28.9230769 9.83795195 28.9230769 18.0769231 37.1810776 18.0769231 37.1810776 15.4423684 33.4210639 15.4423684 47 1.8635768"></polygon>
                </g>
            </g>
        </g>
    </g>
</svg>