<?xml version="1.0" encoding="UTF-8"?>
<svg width="61px" height="61px" viewBox="0 0 61 61" version="1.1" xmlns="http://www.w3.org/2000/svg" xmlns:xlink="http://www.w3.org/1999/xlink">
    <!-- Generator: Sketch 60.1 (88133) - https://sketch.com -->
    <title>Group 98</title>
    <desc>Created with Sketch.</desc>
    <defs>
        <path d="M0.3366,30.5724 C0.3366,47.22 13.8324,60.7158 30.4806,60.7158 L30.4806,60.7158 C47.1288,60.7158 60.6246,47.22 60.6246,30.5724 L60.6246,30.5724 C60.6246,13.9236 47.1288,0.4278 30.4806,0.4278 L30.4806,0.4278 C13.8324,0.4278 0.3366,13.9236 0.3366,30.5724 L0.3366,30.5724 Z" id="path-1"></path>
        <path d="M0.3366,30.5724 C0.3366,47.22 13.8324,60.7158 30.4806,60.7158 L30.4806,60.7158 C47.1288,60.7158 60.6246,47.22 60.6246,30.5724 L60.6246,30.5724 C60.6246,13.9236 47.1288,0.4278 30.4806,0.4278 L30.4806,0.4278 C13.8324,0.4278 0.3366,13.9236 0.3366,30.5724 L0.3366,30.5724 Z" id="path-3"></path>
        <path d="M0.3366,30.5724 C0.3366,47.22 13.8324,60.7158 30.4806,60.7158 L30.4806,60.7158 C47.1288,60.7158 60.6246,47.22 60.6246,30.5724 L60.6246,30.5724 C60.6246,13.9236 47.1288,0.4278 30.4806,0.4278 L30.4806,0.4278 C13.8324,0.4278 0.3366,13.9236 0.3366,30.5724 L0.3366,30.5724 Z" id="path-5"></path>
        <path d="M0.3366,30.5724 C0.3366,47.22 13.8324,60.7158 30.4806,60.7158 L30.4806,60.7158 C47.1288,60.7158 60.6246,47.22 60.6246,30.5724 L60.6246,30.5724 C60.6246,13.9236 47.1288,0.4278 30.4806,0.4278 L30.4806,0.4278 C13.8324,0.4278 0.3366,13.9236 0.3366,30.5724 L0.3366,30.5724 Z" id="path-7"></path>
        <path d="M0.3366,30.5724 C0.3366,47.22 13.8324,60.7158 30.4806,60.7158 L30.4806,60.7158 C47.1288,60.7158 60.6246,47.22 60.6246,30.5724 L60.6246,30.5724 C60.6246,13.9236 47.1288,0.4278 30.4806,0.4278 L30.4806,0.4278 C13.8324,0.4278 0.3366,13.9236 0.3366,30.5724 L0.3366,30.5724 Z" id="path-9"></path>
        <path d="M0.3366,30.5724 C0.3366,47.22 13.8324,60.7158 30.4806,60.7158 L30.4806,60.7158 C47.1288,60.7158 60.6246,47.22 60.6246,30.5724 L60.6246,30.5724 C60.6246,13.9236 47.1288,0.4278 30.4806,0.4278 L30.4806,0.4278 C13.8324,0.4278 0.3366,13.9236 0.3366,30.5724 L0.3366,30.5724 Z" id="path-11"></path>
        <path d="M0.3366,30.5724 C0.3366,47.22 13.8324,60.7158 30.4806,60.7158 L30.4806,60.7158 C47.1288,60.7158 60.6246,47.22 60.6246,30.5724 L60.6246,30.5724 C60.6246,13.9236 47.1288,0.4278 30.4806,0.4278 L30.4806,0.4278 C13.8324,0.4278 0.3366,13.9236 0.3366,30.5724 L0.3366,30.5724 Z" id="path-13"></path>
        <path d="M0.3366,30.5724 C0.3366,47.22 13.8324,60.7158 30.4806,60.7158 L30.4806,60.7158 C47.1288,60.7158 60.6246,47.22 60.6246,30.5724 L60.6246,30.5724 C60.6246,13.9236 47.1288,0.4278 30.4806,0.4278 L30.4806,0.4278 C13.8324,0.4278 0.3366,13.9236 0.3366,30.5724 L0.3366,30.5724 Z" id="path-15"></path>
        <path d="M0.3366,30.5724 C0.3366,47.22 13.8324,60.7158 30.4806,60.7158 L30.4806,60.7158 C47.1288,60.7158 60.6246,47.22 60.6246,30.5724 L60.6246,30.5724 C60.6246,13.9236 47.1288,0.4278 30.4806,0.4278 L30.4806,0.4278 C13.8324,0.4278 0.3366,13.9236 0.3366,30.5724 L0.3366,30.5724 Z" id="path-17"></path>
        <path d="M0.3366,30.5724 C0.3366,47.22 13.8324,60.7158 30.4806,60.7158 L30.4806,60.7158 C47.1288,60.7158 60.6246,47.22 60.6246,30.5724 L60.6246,30.5724 C60.6246,13.9236 47.1288,0.4278 30.4806,0.4278 L30.4806,0.4278 C13.8324,0.4278 0.3366,13.9236 0.3366,30.5724 L0.3366,30.5724 Z" id="path-19"></path>
        <path d="M0.3366,30.5724 C0.3366,47.22 13.8324,60.7158 30.4806,60.7158 L30.4806,60.7158 C47.1288,60.7158 60.6246,47.22 60.6246,30.5724 L60.6246,30.5724 C60.6246,13.9236 47.1288,0.4278 30.4806,0.4278 L30.4806,0.4278 C13.8324,0.4278 0.3366,13.9236 0.3366,30.5724 L0.3366,30.5724 Z" id="path-21"></path>
        <path d="M0.3366,30.5724 C0.3366,47.22 13.8324,60.7158 30.4806,60.7158 L30.4806,60.7158 C47.1288,60.7158 60.6246,47.22 60.6246,30.5724 L60.6246,30.5724 C60.6246,13.9236 47.1288,0.4278 30.4806,0.4278 L30.4806,0.4278 C13.8324,0.4278 0.3366,13.9236 0.3366,30.5724 L0.3366,30.5724 Z" id="path-23"></path>
        <path d="M0.3366,30.5724 C0.3366,47.22 13.8324,60.7158 30.4806,60.7158 L30.4806,60.7158 C47.1288,60.7158 60.6246,47.22 60.6246,30.5724 L60.6246,30.5724 C60.6246,13.9236 47.1288,0.4278 30.4806,0.4278 L30.4806,0.4278 C13.8324,0.4278 0.3366,13.9236 0.3366,30.5724 L0.3366,30.5724 Z" id="path-25"></path>
        <path d="M0.3366,30.5724 C0.3366,47.22 13.8324,60.7158 30.4806,60.7158 L30.4806,60.7158 C47.1288,60.7158 60.6246,47.22 60.6246,30.5724 L60.6246,30.5724 C60.6246,13.9236 47.1288,0.4278 30.4806,0.4278 L30.4806,0.4278 C13.8324,0.4278 0.3366,13.9236 0.3366,30.5724 L0.3366,30.5724 Z" id="path-27"></path>
        <path d="M0.3366,30.5724 C0.3366,47.22 13.8324,60.7158 30.4806,60.7158 L30.4806,60.7158 C47.1288,60.7158 60.6246,47.22 60.6246,30.5724 L60.6246,30.5724 C60.6246,13.9236 47.1288,0.4278 30.4806,0.4278 L30.4806,0.4278 C13.8324,0.4278 0.3366,13.9236 0.3366,30.5724 L0.3366,30.5724 Z" id="path-29"></path>
        <path d="M0.3366,30.5724 C0.3366,47.22 13.8324,60.7158 30.4806,60.7158 L30.4806,60.7158 C47.1288,60.7158 60.6246,47.22 60.6246,30.5724 L60.6246,30.5724 C60.6246,13.9236 47.1288,0.4278 30.4806,0.4278 L30.4806,0.4278 C13.8324,0.4278 0.3366,13.9236 0.3366,30.5724 L0.3366,30.5724 Z" id="path-31"></path>
        <path d="M0.3366,30.5724 C0.3366,47.22 13.8324,60.7158 30.4806,60.7158 L30.4806,60.7158 C47.1288,60.7158 60.6246,47.22 60.6246,30.5724 L60.6246,30.5724 C60.6246,13.9236 47.1288,0.4278 30.4806,0.4278 L30.4806,0.4278 C13.8324,0.4278 0.3366,13.9236 0.3366,30.5724 L0.3366,30.5724 Z" id="path-33"></path>
        <path d="M0.3366,30.5724 C0.3366,47.22 13.8324,60.7158 30.4806,60.7158 L30.4806,60.7158 C47.1288,60.7158 60.6246,47.22 60.6246,30.5724 L60.6246,30.5724 C60.6246,13.9236 47.1288,0.4278 30.4806,0.4278 L30.4806,0.4278 C13.8324,0.4278 0.3366,13.9236 0.3366,30.5724 L0.3366,30.5724 Z" id="path-35"></path>
        <path d="M0.3366,30.5724 C0.3366,47.22 13.8324,60.7158 30.4806,60.7158 L30.4806,60.7158 C47.1288,60.7158 60.6246,47.22 60.6246,30.5724 L60.6246,30.5724 C60.6246,13.9236 47.1288,0.4278 30.4806,0.4278 L30.4806,0.4278 C13.8324,0.4278 0.3366,13.9236 0.3366,30.5724 L0.3366,30.5724 Z" id="path-37"></path>
        <path d="M0.3366,30.5724 C0.3366,47.22 13.8324,60.7158 30.4806,60.7158 L30.4806,60.7158 C47.1288,60.7158 60.6246,47.22 60.6246,30.5724 L60.6246,30.5724 C60.6246,13.9236 47.1288,0.4278 30.4806,0.4278 L30.4806,0.4278 C13.8324,0.4278 0.3366,13.9236 0.3366,30.5724 L0.3366,30.5724 Z" id="path-39"></path>
        <path d="M0.3366,30.5724 C0.3366,47.22 13.8324,60.7158 30.4806,60.7158 L30.4806,60.7158 C47.1288,60.7158 60.6246,47.22 60.6246,30.5724 L60.6246,30.5724 C60.6246,13.9236 47.1288,0.4278 30.4806,0.4278 L30.4806,0.4278 C13.8324,0.4278 0.3366,13.9236 0.3366,30.5724 L0.3366,30.5724 Z" id="path-41"></path>
        <path d="M0.3366,30.5724 C0.3366,47.22 13.8324,60.7158 30.4806,60.7158 L30.4806,60.7158 C47.1288,60.7158 60.6246,47.22 60.6246,30.5724 L60.6246,30.5724 C60.6246,13.9236 47.1288,0.4278 30.4806,0.4278 L30.4806,0.4278 C13.8324,0.4278 0.3366,13.9236 0.3366,30.5724 L0.3366,30.5724 Z" id="path-43"></path>
        <path d="M0.3366,30.5724 C0.3366,47.22 13.8324,60.7158 30.4806,60.7158 L30.4806,60.7158 C47.1288,60.7158 60.6246,47.22 60.6246,30.5724 L60.6246,30.5724 C60.6246,13.9236 47.1288,0.4278 30.4806,0.4278 L30.4806,0.4278 C13.8324,0.4278 0.3366,13.9236 0.3366,30.5724 L0.3366,30.5724 Z" id="path-45"></path>
        <path d="M0.3366,30.5724 C0.3366,47.22 13.8324,60.7158 30.4806,60.7158 L30.4806,60.7158 C47.1288,60.7158 60.6246,47.22 60.6246,30.5724 L60.6246,30.5724 C60.6246,13.9236 47.1288,0.4278 30.4806,0.4278 L30.4806,0.4278 C13.8324,0.4278 0.3366,13.9236 0.3366,30.5724 L0.3366,30.5724 Z" id="path-47"></path>
        <path d="M0.3366,30.5724 C0.3366,47.22 13.8324,60.7158 30.4806,60.7158 L30.4806,60.7158 C47.1288,60.7158 60.6246,47.22 60.6246,30.5724 L60.6246,30.5724 C60.6246,13.9236 47.1288,0.4278 30.4806,0.4278 L30.4806,0.4278 C13.8324,0.4278 0.3366,13.9236 0.3366,30.5724 L0.3366,30.5724 Z" id="path-49"></path>
        <path d="M0.3366,30.5724 C0.3366,47.22 13.8324,60.7158 30.4806,60.7158 L30.4806,60.7158 C47.1288,60.7158 60.6246,47.22 60.6246,30.5724 L60.6246,30.5724 C60.6246,13.9236 47.1288,0.4278 30.4806,0.4278 L30.4806,0.4278 C13.8324,0.4278 0.3366,13.9236 0.3366,30.5724 L0.3366,30.5724 Z" id="path-51"></path>
        <path d="M0.3366,30.5724 C0.3366,47.22 13.8324,60.7158 30.4806,60.7158 L30.4806,60.7158 C47.1288,60.7158 60.6246,47.22 60.6246,30.5724 L60.6246,30.5724 C60.6246,13.9236 47.1288,0.4278 30.4806,0.4278 L30.4806,0.4278 C13.8324,0.4278 0.3366,13.9236 0.3366,30.5724 L0.3366,30.5724 Z" id="path-53"></path>
        <path d="M0.3366,30.5724 C0.3366,47.22 13.8324,60.7158 30.4806,60.7158 L30.4806,60.7158 C47.1288,60.7158 60.6246,47.22 60.6246,30.5724 L60.6246,30.5724 C60.6246,13.9236 47.1288,0.4278 30.4806,0.4278 L30.4806,0.4278 C13.8324,0.4278 0.3366,13.9236 0.3366,30.5724 L0.3366,30.5724 Z" id="path-55"></path>
        <path d="M0.3366,30.5724 C0.3366,47.22 13.8324,60.7158 30.4806,60.7158 L30.4806,60.7158 C47.1288,60.7158 60.6246,47.22 60.6246,30.5724 L60.6246,30.5724 C60.6246,13.9236 47.1288,0.4278 30.4806,0.4278 L30.4806,0.4278 C13.8324,0.4278 0.3366,13.9236 0.3366,30.5724 L0.3366,30.5724 Z" id="path-57"></path>
        <path d="M0.3366,30.5724 C0.3366,47.22 13.8324,60.7158 30.4806,60.7158 L30.4806,60.7158 C47.1288,60.7158 60.6246,47.22 60.6246,30.5724 L60.6246,30.5724 C60.6246,13.9236 47.1288,0.4278 30.4806,0.4278 L30.4806,0.4278 C13.8324,0.4278 0.3366,13.9236 0.3366,30.5724 L0.3366,30.5724 Z" id="path-59"></path>
        <path d="M0.3366,30.5724 C0.3366,47.22 13.8324,60.7158 30.4806,60.7158 L30.4806,60.7158 C47.1288,60.7158 60.6246,47.22 60.6246,30.5724 L60.6246,30.5724 C60.6246,13.9236 47.1288,0.4278 30.4806,0.4278 L30.4806,0.4278 C13.8324,0.4278 0.3366,13.9236 0.3366,30.5724 L0.3366,30.5724 Z" id="path-61"></path>
        <path d="M0.3366,30.5724 C0.3366,47.22 13.8324,60.7158 30.4806,60.7158 L30.4806,60.7158 C47.1288,60.7158 60.6246,47.22 60.6246,30.5724 L60.6246,30.5724 C60.6246,13.9236 47.1288,0.4278 30.4806,0.4278 L30.4806,0.4278 C13.8324,0.4278 0.3366,13.9236 0.3366,30.5724 L0.3366,30.5724 Z" id="path-63"></path>
    </defs>
    <g id="Eco" stroke="none" stroke-width="1" fill="none" fill-rule="evenodd">
        <g id="09-01-Eco-mobile" transform="translate(-127.000000, -5190.000000)">
            <g id="Group-98" transform="translate(127.000000, 5190.000000)">
                <g id="Group-97">
                    <g id="Group-3" transform="translate(0.000000, 0.235800)">
                        <mask id="mask-2" fill="white">
                            <use xlink:href="#path-1"></use>
                        </mask>
                        <g id="Clip-2"></g>
                        <polygon id="Fill-1" fill="#252E43" mask="url(#mask-2)" points="156.03348 36.83694 16.56468 -102.63306 19.16688 -105.23526 158.63568 34.23414"></polygon>
                    </g>
                    <g id="Group-6" transform="translate(0.000000, 0.235800)">
                        <mask id="mask-4" fill="white">
                            <use xlink:href="#path-3"></use>
                        </mask>
                        <g id="Clip-5"></g>
                        <polygon id="Fill-4" fill="#252E43" mask="url(#mask-4)" points="148.39638 44.4717 8.92818 -94.9959 11.53038 -97.5981 150.99858 41.8701"></polygon>
                    </g>
                    <g id="Group-9" transform="translate(0.000000, 0.235800)">
                        <mask id="mask-6" fill="white">
                            <use xlink:href="#path-5"></use>
                        </mask>
                        <g id="Clip-8"></g>
                        <polygon id="Fill-7" fill="#252E43" mask="url(#mask-6)" points="140.75988 52.1088 1.29168 -87.3588 3.89388 -89.961 143.36208 49.5072"></polygon>
                    </g>
                    <g id="Group-12" transform="translate(0.000000, 0.235800)">
                        <mask id="mask-8" fill="white">
                            <use xlink:href="#path-7"></use>
                        </mask>
                        <g id="Clip-11"></g>
                        <polygon id="Fill-10" fill="#252E43" mask="url(#mask-8)" points="133.12278 59.7459 -6.34542 -79.7217 -3.74322 -82.3239 135.72498 57.1443"></polygon>
                    </g>
                    <g id="Group-15" transform="translate(0.000000, 0.235800)">
                        <mask id="mask-10" fill="white">
                            <use xlink:href="#path-9"></use>
                        </mask>
                        <g id="Clip-14"></g>
                        <polygon id="Fill-13" fill="#252E43" mask="url(#mask-10)" points="125.7915 67.07712 -13.6767 -72.39048 -11.0745 -74.99268 128.3937 64.47552"></polygon>
                    </g>
                    <g id="Group-18" transform="translate(0.000000, 0.235800)">
                        <mask id="mask-12" fill="white">
                            <use xlink:href="#path-11"></use>
                        </mask>
                        <g id="Clip-17"></g>
                        <polygon id="Fill-16" fill="#252E43" mask="url(#mask-12)" points="118.155 74.71542 -21.3138 -64.75458 -18.7116 -67.35678 120.7572 72.11262"></polygon>
                    </g>
                    <g id="Group-21" transform="translate(0.000000, 0.235800)">
                        <mask id="mask-14" fill="white">
                            <use xlink:href="#path-13"></use>
                        </mask>
                        <g id="Clip-20"></g>
                        <polygon id="Fill-19" fill="#252E43" mask="url(#mask-14)" points="110.5179 82.35018 -28.9503 -57.11742 -26.3481 -59.71962 113.1201 79.74858"></polygon>
                    </g>
                    <g id="Group-24" transform="translate(0.000000, 0.235800)">
                        <mask id="mask-16" fill="white">
                            <use xlink:href="#path-15"></use>
                        </mask>
                        <g id="Clip-23"></g>
                        <polygon id="Fill-22" fill="#252E43" mask="url(#mask-16)" points="102.88134 89.98728 -36.58686 -49.48032 -33.98466 -52.08252 105.48354 87.38568"></polygon>
                    </g>
                    <g id="Group-27" transform="translate(0.000000, 0.235800)">
                        <mask id="mask-18" fill="white">
                            <use xlink:href="#path-17"></use>
                        </mask>
                        <g id="Clip-26"></g>
                        <polygon id="Fill-25" fill="#252E43" mask="url(#mask-18)" points="94.82004 98.04864 -44.64816 -41.41896 -42.04596 -44.02116 97.42224 95.44704"></polygon>
                    </g>
                    <g id="Group-30" transform="translate(0.000000, 0.235800)">
                        <mask id="mask-20" fill="white">
                            <use xlink:href="#path-19"></use>
                        </mask>
                        <g id="Clip-29"></g>
                        <polygon id="Fill-28" fill="#252E43" mask="url(#mask-20)" points="87.18348 105.68454 -52.28472 -33.78306 -49.68252 -36.38526 89.78568 103.08294"></polygon>
                    </g>
                    <g id="Group-33" transform="translate(0.000000, 0.235800)">
                        <mask id="mask-22" fill="white">
                            <use xlink:href="#path-21"></use>
                        </mask>
                        <g id="Clip-32"></g>
                        <polygon id="Fill-31" fill="#252E43" mask="url(#mask-22)" points="79.54698 113.3217 -59.92122 -26.1459 -57.31902 -28.7481 82.14918 110.7201"></polygon>
                    </g>
                    <g id="Group-36" transform="translate(0.000000, 0.235800)">
                        <mask id="mask-24" fill="white">
                            <use xlink:href="#path-23"></use>
                        </mask>
                        <g id="Clip-35"></g>
                        <polygon id="Fill-34" fill="#252E43" mask="url(#mask-24)" points="71.90988 120.9588 -67.55832 -18.5088 -64.95612 -21.111 74.51208 118.3572"></polygon>
                    </g>
                    <g id="Group-39" transform="translate(0.000000, 0.235800)">
                        <mask id="mask-26" fill="white">
                            <use xlink:href="#path-25"></use>
                        </mask>
                        <g id="Clip-38"></g>
                        <polygon id="Fill-37" fill="#252E43" mask="url(#mask-26)" points="64.5786 128.29002 -74.8896 -11.17758 -72.2874 -13.77978 67.1808 125.68842"></polygon>
                    </g>
                    <g id="Group-42" transform="translate(0.000000, 0.235800)">
                        <mask id="mask-28" fill="white">
                            <use xlink:href="#path-27"></use>
                        </mask>
                        <g id="Clip-41"></g>
                        <polygon id="Fill-40" fill="#252E43" mask="url(#mask-28)" points="56.9421 135.92832 -82.5267 -3.54168 -79.9245 -6.14388 59.5443 133.32552"></polygon>
                    </g>
                    <g id="Group-45" transform="translate(0.000000, 0.235800)">
                        <mask id="mask-30" fill="white">
                            <use xlink:href="#path-29"></use>
                        </mask>
                        <g id="Clip-44"></g>
                        <polygon id="Fill-43" fill="#252E43" mask="url(#mask-30)" points="49.305 143.56308 -90.1632 4.09548 -87.561 1.49328 51.9072 140.96148"></polygon>
                    </g>
                    <g id="Group-48" transform="translate(0.000000, 0.235800)">
                        <mask id="mask-32" fill="white">
                            <use xlink:href="#path-31"></use>
                        </mask>
                        <g id="Clip-47"></g>
                        <polygon id="Fill-46" fill="#252E43" mask="url(#mask-32)" points="41.6685 151.20018 -97.7997 11.73258 -95.1975 9.13038 44.2707 148.59858"></polygon>
                    </g>
                    <g id="Group-51" transform="translate(0.000000, 0.235800)">
                        <mask id="mask-34" fill="white">
                            <use xlink:href="#path-33"></use>
                        </mask>
                        <g id="Clip-50"></g>
                        <polygon id="Fill-49" fill="#252E43" mask="url(#mask-34)" points="19.1667 151.20018 16.5645 148.59858 156.0327 9.13038 158.6349 11.73258"></polygon>
                    </g>
                    <g id="Group-54" transform="translate(0.000000, 0.235800)">
                        <mask id="mask-36" fill="white">
                            <use xlink:href="#path-35"></use>
                        </mask>
                        <g id="Clip-53"></g>
                        <polygon id="Fill-52" fill="#252E43" mask="url(#mask-36)" points="11.5302 143.56308 8.928 140.96148 148.3962 1.49328 150.9984 4.09548"></polygon>
                    </g>
                    <g id="Group-57" transform="translate(0.000000, 0.235800)">
                        <mask id="mask-38" fill="white">
                            <use xlink:href="#path-37"></use>
                        </mask>
                        <g id="Clip-56"></g>
                        <polygon id="Fill-55" fill="#252E43" mask="url(#mask-38)" points="3.8937 135.92832 1.2915 133.32552 140.7597 -6.14388 143.3619 -3.54168"></polygon>
                    </g>
                    <g id="Group-60" transform="translate(0.000000, 0.235800)">
                        <mask id="mask-40" fill="white">
                            <use xlink:href="#path-39"></use>
                        </mask>
                        <g id="Clip-59"></g>
                        <polygon id="Fill-58" fill="#252E43" mask="url(#mask-40)" points="-3.74346 128.29002 -6.34566 125.68842 133.12254 -13.77978 135.72474 -11.17758"></polygon>
                    </g>
                    <g id="Group-63" transform="translate(0.000000, 0.235800)">
                        <mask id="mask-42" fill="white">
                            <use xlink:href="#path-41"></use>
                        </mask>
                        <g id="Clip-62"></g>
                        <polygon id="Fill-61" fill="#252E43" mask="url(#mask-42)" points="-11.07468 120.9588 -13.67688 118.3572 125.79132 -21.111 128.39352 -18.5088"></polygon>
                    </g>
                    <g id="Group-66" transform="translate(0.000000, 0.235800)">
                        <mask id="mask-44" fill="white">
                            <use xlink:href="#path-43"></use>
                        </mask>
                        <g id="Clip-65"></g>
                        <polygon id="Fill-64" fill="#252E43" mask="url(#mask-44)" points="-18.71178 113.32284 -21.31398 110.72004 118.15482 -28.74816 120.75702 -26.14596"></polygon>
                    </g>
                    <g id="Group-69" transform="translate(0.000000, 0.235800)">
                        <mask id="mask-46" fill="white">
                            <use xlink:href="#path-45"></use>
                        </mask>
                        <g id="Clip-68"></g>
                        <polygon id="Fill-67" fill="#252E43" mask="url(#mask-46)" points="-26.34834 105.68454 -28.95054 103.08294 110.51766 -36.38526 113.11986 -33.78306"></polygon>
                    </g>
                    <g id="Group-72" transform="translate(0.000000, 0.235800)">
                        <mask id="mask-48" fill="white">
                            <use xlink:href="#path-47"></use>
                        </mask>
                        <g id="Clip-71"></g>
                        <polygon id="Fill-70" fill="#252E43" mask="url(#mask-48)" points="-33.98484 98.04864 -36.58704 95.44704 102.88116 -44.02116 105.48336 -41.41896"></polygon>
                    </g>
                    <g id="Group-75" transform="translate(0.000000, 0.235800)">
                        <mask id="mask-50" fill="white">
                            <use xlink:href="#path-49"></use>
                        </mask>
                        <g id="Clip-74"></g>
                        <polygon id="Fill-73" fill="#252E43" mask="url(#mask-50)" points="-42.0462 89.98728 -44.6484 87.38568 94.8198 -52.08252 97.422 -49.48032"></polygon>
                    </g>
                    <g id="Group-78" transform="translate(0.000000, 0.235800)">
                        <mask id="mask-52" fill="white">
                            <use xlink:href="#path-51"></use>
                        </mask>
                        <g id="Clip-77"></g>
                        <polygon id="Fill-76" fill="#252E43" mask="url(#mask-52)" points="-49.6827 82.35018 -52.2849 79.74858 87.1833 -59.71962 89.7855 -57.11742"></polygon>
                    </g>
                    <g id="Group-81" transform="translate(0.000000, 0.235800)">
                        <mask id="mask-54" fill="white">
                            <use xlink:href="#path-53"></use>
                        </mask>
                        <g id="Clip-80"></g>
                        <polygon id="Fill-79" fill="#252E43" mask="url(#mask-54)" points="-57.3192 74.71542 -59.9214 72.11262 79.5468 -67.35678 82.149 -64.75458"></polygon>
                    </g>
                    <g id="Group-84" transform="translate(0.000000, 0.235800)">
                        <mask id="mask-56" fill="white">
                            <use xlink:href="#path-55"></use>
                        </mask>
                        <g id="Clip-83"></g>
                        <polygon id="Fill-82" fill="#252E43" mask="url(#mask-56)" points="-64.9563 67.07712 -67.5585 64.47552 71.9097 -74.99268 74.5119 -72.39048"></polygon>
                    </g>
                    <g id="Group-87" transform="translate(0.000000, 0.235800)">
                        <mask id="mask-58" fill="white">
                            <use xlink:href="#path-57"></use>
                        </mask>
                        <g id="Clip-86"></g>
                        <polygon id="Fill-85" fill="#252E43" mask="url(#mask-58)" points="-72.28758 59.7459 -74.88978 57.1443 64.57842 -82.3239 67.18062 -79.7217"></polygon>
                    </g>
                    <g id="Group-90" transform="translate(0.000000, 0.235800)">
                        <mask id="mask-60" fill="white">
                            <use xlink:href="#path-59"></use>
                        </mask>
                        <g id="Clip-89"></g>
                        <polygon id="Fill-88" fill="#252E43" mask="url(#mask-60)" points="-79.92468 52.10994 -82.52688 49.50714 56.94192 -89.96106 59.54412 -87.35886"></polygon>
                    </g>
                    <g id="Group-93" transform="translate(0.000000, 0.235800)">
                        <mask id="mask-62" fill="white">
                            <use xlink:href="#path-61"></use>
                        </mask>
                        <g id="Clip-92"></g>
                        <polygon id="Fill-91" fill="#252E43" mask="url(#mask-62)" points="-87.56118 44.4717 -90.16338 41.8701 49.30482 -97.5981 51.90702 -94.9959"></polygon>
                    </g>
                    <g id="Group-96" transform="translate(0.000000, 0.235800)">
                        <mask id="mask-64" fill="white">
                            <use xlink:href="#path-63"></use>
                        </mask>
                        <g id="Clip-95"></g>
                        <polygon id="Fill-94" fill="#252E43" mask="url(#mask-64)" points="-95.19774 36.83694 -97.79994 34.23414 41.66826 -105.23526 44.27046 -102.63306"></polygon>
                    </g>
                </g>
            </g>
        </g>
    </g>
</svg>