<?xml version="1.0" encoding="UTF-8"?>
<svg width="46px" height="70px" viewBox="0 0 46 70" version="1.1" xmlns="http://www.w3.org/2000/svg" xmlns:xlink="http://www.w3.org/1999/xlink">
    <!-- Generator: Sketch 60.1 (88133) - https://sketch.com -->
    <title>Group 47</title>
    <desc>Created with Sketch.</desc>
    <defs>
        <polygon id="path-1" points="0 0.39858 45.0315576 0.39858 45.0315576 69.6 0 69.6"></polygon>
    </defs>
    <g id="Eco" stroke="none" stroke-width="1" fill="none" fill-rule="evenodd">
        <g id="09-01-Eco-mobile" transform="translate(-133.000000, -4753.000000)">
            <g id="Group-47" transform="translate(133.000000, 4753.000000)">
                <g id="Group-9">
                    <g id="Group-6">
                        <g id="Group-3" transform="translate(0.000000, 0.201600)">
                            <mask id="mask-2" fill="white">
                                <use xlink:href="#path-1"></use>
                            </mask>
                            <g id="Clip-2"></g>
                            <path d="M22.52754,67.16478 C22.52634,67.16478 22.19874,67.16118 22.19874,67.16118 C11.14494,66.99378 2.27274,57.85098 2.43774,46.78218 C2.45094,45.86478 2.53014,44.93538 2.66574,43.98618 C2.81754,42.93138 3.04134,41.85318 3.34914,40.72818 C5.31774,33.54618 10.19754,26.83338 14.91774,20.33898 C18.07074,16.00278 21.10734,11.82678 23.19534,7.64058 C23.33334,7.91478 23.47674,8.19018 23.62494,8.46798 C25.42854,11.82678 27.80514,15.09258 30.32334,18.55218 L30.34494,18.58218 C32.23974,21.18978 34.19814,23.88378 35.97234,26.71038 C39.86934,32.92518 41.93154,38.38578 42.45594,43.98618 C42.56154,45.11238 42.61014,46.24458 42.59274,47.38938 C42.43134,58.29258 33.42834,67.16478 22.52754,67.16478 M44.90154,43.98618 C44.38014,37.91958 42.19914,32.05638 38.03394,25.41918 C36.21114,22.50798 34.21854,19.77078 32.29254,17.11998 C29.82354,13.72398 27.49014,10.51518 25.77234,7.31838 C24.43014,4.81158 23.59194,2.55558 23.22294,0.39858 C22.04154,6.40218 17.61114,12.49458 12.95694,18.89538 C8.10474,25.57038 3.08754,32.47158 1.00014,40.08618 C0.63174,41.43138 0.37854,42.72078 0.21474,43.98618 C0.09354,44.91678 0.01494,45.83658 0.00234,46.74738 C-0.18246,59.15718 9.76494,69.40878 22.17774,69.59778 C22.29294,69.59778 22.41114,69.60018 22.52574,69.60018 C34.75194,69.60018 44.84574,59.65398 45.02814,47.42598 C45.04494,46.26798 44.99934,45.12438 44.90154,43.98618" id="Fill-1" fill="#252E43" mask="url(#mask-2)"></path>
                        </g>
                        <path d="M39.49224,44.49372 C38.92524,36.08172 34.85364,30.91392 34.85364,30.91392 L11.28504,30.91392 C6.03864,38.74332 5.64384,44.49372 5.64384,44.49372 C5.49264,45.43332 5.40684,46.34532 5.39304,47.24292 C5.25384,56.68332 12.81144,64.48032 22.22604,64.62192 L22.53564,64.62432 C31.82844,64.62072 39.49884,57.05592 39.63684,47.76312 C39.65364,46.66512 39.60444,45.57792 39.49224,44.49372" id="Fill-4" fill="#252E43"></path>
                    </g>
                </g>
            </g>
        </g>
    </g>
</svg>