<?xml version="1.0" encoding="utf-8"?>
<svg width="37px" height="36px" viewBox="0 0 37 36" version="1.1" xmlns:xlink="http://www.w3.org/1999/xlink" xmlns="http://www.w3.org/2000/svg">
  <desc>Created with Lunacy</desc>
  <g id="Group-3" transform="translate(0.75 0.75)">
    <path d="M25.5795 0L25.5795 21L0 21L0 0" transform="translate(4.960022 13.4834)" id="Stroke-1" fill="none" stroke="#252E43" stroke-width="1.5" stroke-linecap="round" stroke-linejoin="round" />
    <path d="M0 12.2667L0 0L10.5 0L10.5 12.2667" transform="translate(12.49988 22.2168)" id="Stroke-3" fill="none" stroke="#252E43" stroke-width="1.5" stroke-linecap="round" stroke-linejoin="round" />
    <path d="M0 7L3 0" transform="translate(6.249878 6.25)" id="Stroke-6" fill="none" stroke="#252E43" stroke-width="1.5" stroke-linecap="round" stroke-linejoin="round" />
    <path d="M0 7L2 0" transform="translate(12.24988 6.25)" id="Stroke-7" fill="none" stroke="#252E43" stroke-width="1.5" stroke-linecap="round" stroke-linejoin="round" />
    <path d="M2 7L0 0" transform="translate(21.24988 6.25)" id="Stroke-8" fill="none" stroke="#252E43" stroke-width="1.5" stroke-linecap="round" stroke-linejoin="round" />
    <path d="M0 0L3 7" transform="translate(25.24988 6.25)" id="Stroke-9" fill="none" stroke="#252E43" stroke-width="1.5" stroke-linecap="round" stroke-linejoin="round" />
    <path d="M0.379244 4.9965L4.49974 0L29.9997 0L34.1202 4.9965C34.9707 5.9625 34.3002 7.5 33.0297 7.5L1.46974 7.5C0.199244 7.5 -0.469756 5.9625 0.379244 4.9965Z" transform="translate(0 6)" id="Stroke-10" fill="none" stroke="#252E43" stroke-width="1.5" stroke-linecap="round" stroke-linejoin="round" />
    <path d="M0.75 0L0.75 7.5" transform="translate(16.49988 6)" id="Stroke-12" fill="none" stroke="#252E43" stroke-width="1.5" stroke-linecap="round" stroke-linejoin="round" />
    <path d="M25.5 6L25.5 0L0 0L0 6" transform="translate(4.499878 0)" id="Stroke-14" fill="none" stroke="#252E43" stroke-width="1.5" stroke-linecap="round" stroke-linejoin="round" />
  </g>
</svg>