<?xml version="1.0" encoding="utf-8"?>
<svg width="54px" height="36px" viewBox="0 0 54 36" version="1.1" xmlns:xlink="http://www.w3.org/1999/xlink" xmlns="http://www.w3.org/2000/svg">
  <desc>Created with Lunacy</desc>
  <g id="Group-9" transform="translate(0.75 0.75)">
    <g id="Group-8">
      <g id="Group-5">
        <g id="Group-4">
          <path d="M13.3043 24.75L17.7391 24.75L17.7391 11.25L8.86957 0L4.43478 0L0 0" transform="translate(34.02718 5)" id="Stroke-1" fill="none" stroke="#252E43" stroke-width="1.5" stroke-linecap="round" stroke-linejoin="round" />
          <path d="M13.5 11.25L0 11.25L0 0" transform="translate(38 5)" id="Stroke-9" fill="none" stroke="#252E43" stroke-width="1.5" stroke-linecap="round" stroke-linejoin="round" />
          <path d="M0 0L0 6.75L8 6.75" transform="translate(2.983688 23)" id="Stroke-3" fill="none" stroke="#252E43" stroke-width="1.5" stroke-linecap="round" stroke-linejoin="round" />
          <path d="M0 22.5L33.75 22.5L33.75 0L0 0L0 22.5Z" id="Stroke-7" fill="none" stroke="#252E43" stroke-width="1.5" stroke-linecap="round" stroke-linejoin="round" />
          <path d="M9 4.5C9 6.984 6.984 9 4.5 9C2.016 9 0 6.984 0 4.5C0 2.016 2.016 0 4.5 0C6.984 0 9 2.016 9 4.5Z" transform="translate(11.25 24.75)" id="Stroke-10" fill="none" stroke="#252E43" stroke-width="1.5" stroke-linecap="round" stroke-linejoin="round" />
          <path d="M9 4.5C9 6.984 6.984 9 4.5 9C2.016 9 0 6.984 0 4.5C0 2.016 2.016 0 4.5 0C6.984 0 9 2.016 9 4.5Z" transform="translate(38.25 24.75)" id="Stroke-11" fill="none" stroke="#252E43" stroke-width="1.5" stroke-linecap="round" stroke-linejoin="round" />
        </g>
        <path d="M16.7023 0.5L0 0.5" transform="translate(20.875 28.875)" id="Stroke-6" fill="none" stroke="#252E43" stroke-width="1.5" stroke-linecap="round" stroke-linejoin="round" />
      </g>
    </g>
  </g>
</svg>