<?xml version="1.0" encoding="UTF-8"?>
<svg width="50px" height="50px" viewBox="0 0 50 50" version="1.1" xmlns="http://www.w3.org/2000/svg" xmlns:xlink="http://www.w3.org/1999/xlink">
    <!-- Generator: Sketch 60.1 (88133) - https://sketch.com -->
    <title>Group 62</title>
    <desc>Created with Sketch.</desc>
    <g id="Eco" stroke="none" stroke-width="1" fill="none" fill-rule="evenodd">
        <g id="09-01-Eco-mobile" transform="translate(-135.000000, -16032.000000)" fill="#252E43">
            <g id="Group-62" transform="translate(135.000051, 16032.091616)">
                <path d="M24.9535354,-5.04485342e-13 C11.1939394,-5.04485342e-13 1.27897692e-13,11.1959596 1.27897692e-13,24.9545455 C1.27897692e-13,38.7141414 11.1939394,49.9080808 24.9535354,49.9080808 C38.7111111,49.9080808 49.9070707,38.7141414 49.9070707,24.9545455 C49.9070707,19.1444444 47.9333333,13.640404 44.3070707,9.20252525 L47.4469697,9.20252525 L47.4469697,6.86868687 L40.1515152,6.86868687 L40.1515152,14.1828283 L42.4843434,14.1828283 L42.4843434,10.6585859 C45.7808081,14.6838384 47.5742424,19.6813131 47.5742424,24.9545455 C47.5742424,37.4267677 37.4267677,47.5752525 24.9535354,47.5752525 C12.480303,47.5752525 2.33282828,37.4267677 2.33282828,24.9545455 C2.33282828,12.4833333 12.480303,2.33484848 24.9535354,2.33484848 L24.9535354,-5.04485342e-13" id="Fill-1"></path>
                <polygon id="Fill-4" points="24.5523411 9.90838384 15.9999495 27.1734636 25.3856278 27.1734636 22.0429145 40.9083838 33.9999495 22.9981386 22.6853761 23.1032"></polygon>
            </g>
        </g>
    </g>
</svg>