<?xml version="1.0" encoding="UTF-8"?>
<svg width="64px" height="57px" viewBox="0 0 64 57" version="1.1" xmlns="http://www.w3.org/2000/svg" xmlns:xlink="http://www.w3.org/1999/xlink">
    <!-- Generator: Sketch 60.1 (88133) - https://sketch.com -->
    <title>Group 61</title>
    <desc>Created with Sketch.</desc>
    <g id="Eco" stroke="none" stroke-width="1" fill="none" fill-rule="evenodd">
        <g id="09-01-Eco-mobile" transform="translate(-129.000000, -15773.000000)">
            <g id="Group-61" transform="translate(131.000000, 15775.000000)">
                <path d="M25,18.4478155 C24.4375312,17.746966 23.7650141,17.4035194 22.941108,17.4035194 C21.5139744,17.4035194 20.4839461,18.5054612 20.4839461,20.035801 C20.4839461,20.851335 20.7448012,21.4945388 21.2938779,21.967233 C21.7608551,22.3677184 22.3372983,22.5964806 22.941108,22.5964806 C23.7236733,22.5964806 24.3822159,22.2815534 25,21.595267 L25,24.5279126 C23.8884545,24.913835 23.5175512,25 22.8729829,25 C21.5273665,25 20.1409915,24.3701456 19.2076194,23.3404126 C18.4250541,22.4678398 18,21.3228155 18,20.0503641 C18,17.2317961 20.1409915,15 22.8450341,15 C23.558892,15 24.1353352,15.1292476 25,15.4866505 L25,18.4478155 Z" id="Fill-98" fill="#252E43"></path>
                <path d="M28.6978388,19.9650975 C28.6978388,21.4560587 29.935165,22.6373725 31.5006323,22.6373725 C33.0502931,22.6373725 34.3021612,21.4560587 34.3021612,19.9931388 C34.3021612,18.5445379 33.0502931,17.3632242 31.5006323,17.3632242 C29.964881,17.3632242 28.6978388,18.5445379 28.6978388,19.9650975 M35.5692034,16.575085 C36.4935625,17.4897083 37,18.6990633 37,20.0068612 C37,21.4841 36.3146339,22.8766183 35.1373721,23.8192829 C34.1377745,24.6062287 32.9162547,25 31.4551098,25 C28.3254397,25 26,22.8348547 26,19.9084184 C26,18.5164966 26.6853661,17.1239783 27.8632601,16.1813138 C28.8021612,15.4361315 30.1134613,15 31.5006323,15 C33.1546155,15 34.5108058,15.520852 35.5692034,16.575085" id="Fill-100" fill="#252E43"></path>
                <path d="M46,22.8846506 L46,25 L38,25 L40.5264827,22.4531584 C41.2591183,21.7195606 42.1268633,20.6838572 42.5905487,20.0070186 C42.9946083,19.4461398 43.2039328,18.8559658 43.2039328,18.3524565 C43.2039328,17.6762283 42.6806216,17.1153494 42.052014,17.1153494 C41.4240406,17.1153494 40.9908024,17.6048215 40.9908024,18.2944767 C40.9908024,18.3957888 41.0053917,18.4964907 41.019981,18.6978944 L38.1788773,18.6978944 C38.1788773,18.0216662 38.3437996,17.417455 38.6875991,16.784559 C39.3155725,15.6328959 40.5118934,15 42.0374247,15 C44.2949572,15 45.8953378,16.4385108 45.8953378,18.4531584 C45.8953378,19.5755264 45.446876,20.4537687 44.414843,21.3887702 L42.7396131,22.8846506 L46,22.8846506 Z" id="Fill-102" fill="#252E43"></path>
                <polygon id="Fill-267" fill="#252E43" points="38 48.9800819 36.0801703 47.0589741 33.3472863 49.8004535 33.3454619 30 30.6344702 30 30.6344702 49.8004535 27.9137485 47.0729923 26 48.9922717 31.9923985 55"></polygon>
                <path d="M49.2596247,10.3563622 C53.6699913,11.3009058 56.7469486,13.6494512 58.5830687,17.1408456 C59.5461888,18.9689157 60.0905877,21.320512 59.9875933,23.7776677 C59.8864381,26.1304843 59.1109149,28.1745548 58.0828103,29.8635061 C56.1338868,33.0601882 52.8172223,35.5484626 48.0555713,35.8999207 C45.464159,36.0902938 42.7636217,35.9505648 40.0354966,35.9505648 L15.8759567,35.9505648 C13.1220831,35.9505648 10.3890535,36.0475819 8.30709558,35.449615 C4.34487709,34.3153085 1.4101502,31.4096776 0.337292024,27.36913 C-0.22549872,25.2579408 -0.0673287724,22.4761745 0.687350319,20.4345447 C2.08942268,16.6374551 4.99227037,13.9905364 9.40754154,13.100298 C10.2744109,9.6278189 12.3355248,7.00225618 15.3744722,5.51649154 C16.9126442,4.7659821 18.9308437,4.22415089 21.0379372,4.36876124 C23.0310011,4.50849024 24.7592224,5.1888301 26.1012147,6.0656448 C28.266549,2.97879334 31.1491657,0.336145855 35.9770274,0.0286200332 C39.7902719,-0.212397228 42.8046968,1.09763837 44.948574,2.87262371 C47.1721492,4.71350745 48.6772159,7.23473105 49.2596247,10.3563622 Z" id="Stroke-289" stroke="#252E43" stroke-width="3"></path>
            </g>
        </g>
    </g>
</svg>